<?xml version="1.0" standalone="no"?>
<!DOCTYPE svg PUBLIC "-//W3C//DTD SVG 20010904//EN"
 "http://www.w3.org/TR/2001/REC-SVG-20010904/DTD/svg10.dtd">
<svg version="1.0" xmlns="http://www.w3.org/2000/svg"
 width="1440.000000pt" height="960.000000pt" viewBox="0 0 1440.000000 960.000000"
 preserveAspectRatio="xMidYMid meet">

<g transform="translate(0.000000,960.000000) scale(0.100000,-0.100000)"
fill="#000000" stroke="none">
<path d="M6640 9458 c1 -79 7 -221 12 -317 10 -164 10 -175 -8 -188 -10 -7
-34 -13 -53 -13 -25 0 -51 -11 -85 -35 -29 -20 -62 -35 -78 -35 -28 0 -30 -5
-28 -55 0 -3 -11 -18 -25 -33 -14 -15 -24 -35 -21 -44 2 -11 -1 -15 -10 -11
-10 3 -12 0 -8 -10 3 -10 -2 -17 -14 -21 -11 -4 -32 -18 -46 -31 -32 -30 -94
-44 -107 -24 -5 8 -9 9 -9 3 0 -6 -14 -17 -31 -25 -38 -15 -157 -131 -179
-174 -9 -16 -28 -51 -44 -77 -22 -38 -25 -48 -13 -48 9 0 19 5 22 10 4 6 15 8
25 5 11 -3 30 4 49 21 37 31 53 26 22 -7 -12 -13 -21 -31 -21 -41 0 -25 46
-35 69 -14 18 17 41 22 41 9 -1 -23 -56 -63 -87 -63 -9 0 -13 -3 -10 -7 4 -3
-8 -17 -25 -29 -43 -32 -49 -21 -10 17 35 35 40 54 16 63 -27 10 -34 7 -44
-19 -5 -14 -29 -38 -52 -53 -24 -15 -58 -40 -76 -56 -28 -26 -32 -36 -32 -80
-1 -49 -3 -53 -46 -85 -25 -19 -52 -50 -60 -70 -19 -44 -46 -180 -39 -192 4
-5 -3 -18 -13 -30 -34 -36 -47 -294 -16 -312 10 -6 12 -20 7 -53 -4 -31 -1
-54 10 -77 15 -30 45 -204 36 -210 -78 -53 -266 -232 -323 -307 -103 -137
-177 -276 -211 -395 -9 -33 -20 -73 -25 -90 -39 -134 -37 -337 5 -510 117
-492 153 -605 256 -809 98 -192 194 -314 332 -419 153 -117 566 -289 819 -343
l78 -16 -6 -41 c-11 -79 -20 -93 -60 -89 -19 2 -92 -3 -162 -12 -214 -26 -301
-36 -452 -50 -366 -35 -621 -120 -875 -291 -106 -72 -215 -161 -215 -177 0 -6
17 -7 43 -4 41 7 41 6 17 -8 -14 -9 -37 -15 -52 -16 -15 0 -30 -4 -33 -10 -3
-5 -20 -10 -37 -10 -17 0 -39 -6 -47 -14 -16 -14 -69 -25 -131 -26 -22 0 -30
-3 -22 -8 24 -16 -21 -52 -65 -52 -21 0 -48 -6 -59 -14 -10 -8 -28 -13 -40
-10 -12 3 -28 -1 -35 -8 -32 -29 -66 -41 -109 -39 -25 1 -49 6 -54 12 -15 14
-26 11 -26 -6 0 -8 -6 -15 -14 -15 -23 0 -43 -41 -51 -105 -5 -43 -13 -63 -27
-74 -18 -12 -19 -15 -4 -23 9 -5 21 -6 26 -3 5 3 7 0 4 -8 -4 -12 -64 -47 -81
-47 -3 0 -3 9 0 20 3 12 -1 23 -10 29 -17 9 -53 3 -53 -9 0 -4 -25 -8 -56 -9
-31 0 -69 -7 -83 -15 -14 -7 -59 -30 -99 -51 -48 -26 -71 -43 -68 -52 7 -17
-23 -30 -33 -15 -5 8 -44 -7 -121 -45 -63 -31 -133 -62 -155 -68 -38 -11 -38
-13 -15 -20 45 -14 51 -29 27 -63 -17 -24 -30 -32 -54 -32 -38 0 -52 16 -28
33 15 11 14 13 -5 14 -11 1 -18 -2 -15 -6 5 -10 -52 -21 -107 -21 -27 0 -41 6
-53 23 -12 15 -19 18 -22 10 -7 -19 -20 -16 -26 7 -3 11 -10 20 -17 20 -6 0
-9 -4 -6 -8 2 -4 -3 -13 -13 -19 -14 -9 -21 -7 -31 7 -12 17 -14 17 -38 -5
-14 -13 -32 -21 -43 -18 -14 4 -19 0 -19 -16 0 -11 -4 -21 -8 -21 -5 0 -22
-13 -38 -30 -16 -16 -35 -30 -41 -30 -16 0 -17 -12 -1 -28 9 -9 8 -12 -4 -12
-10 0 -29 -11 -43 -25 -20 -18 -34 -23 -55 -19 -22 5 -28 2 -33 -16 -3 -12
-10 -19 -15 -16 -5 3 -24 1 -43 -5 -53 -16 -78 -20 -161 -23 -42 -2 -81 -6
-86 -10 -5 -3 -12 -3 -16 1 -11 11 -96 11 -96 1 0 -6 -12 -8 -27 -5 -34 6 -78
-24 -60 -42 8 -8 8 -11 -2 -11 -8 0 -11 -6 -7 -16 3 -8 -1 -23 -10 -31 -14
-14 -22 -15 -66 -3 -28 7 -61 12 -74 13 -35 0 -84 -23 -84 -39 0 -8 -7 -14
-15 -14 -8 0 -15 5 -15 10 0 14 -16 12 -32 -3 -18 -18 -54 -27 -141 -33 -81
-6 -199 -29 -227 -44 -10 -6 -26 -10 -34 -10 -8 0 -32 -12 -53 -26 -27 -18
-49 -25 -78 -23 -22 1 -47 -1 -55 -4 -107 -39 -358 -56 -540 -38 -47 5 -90 6
-96 4 -7 -2 -15 0 -19 6 -8 14 -283 15 -318 2 -13 -5 -30 -15 -38 -23 -20 -17
-56 -38 -69 -38 -5 0 -10 6 -10 14 0 12 -6 12 -40 -1 -40 -16 -48 -33 -19 -41
11 -3 11 -2 1 6 -11 7 -8 11 10 15 35 10 36 9 32 -16 -2 -12 -2 -16 2 -9 8 17
24 15 24 -3 0 -8 -4 -15 -10 -15 -5 0 -10 -7 -10 -15 0 -15 -2 -15 -57 13 -16
9 -24 8 -33 -3 -6 -7 -25 -17 -41 -20 l-29 -7 0 -1009 0 -1009 858 0 857 0 60
25 c33 13 80 27 105 31 25 4 50 10 55 14 6 4 28 10 50 13 22 3 90 16 150 30
61 13 142 28 180 31 39 4 111 15 160 24 132 25 178 22 255 -15 36 -17 123 -59
194 -92 l129 -61 5673 0 5674 0 0 4800 0 4800 -687 -2 c-660 -3 -688 -4 -691
-21 -3 -15 1 -18 15 -13 13 4 27 -2 43 -19 l24 -26 -22 -6 c-17 -4 -21 -10
-16 -29 5 -18 2 -24 -10 -24 -9 0 -16 -3 -17 -7 0 -5 -2 -23 -5 -40 -2 -18 0
-32 4 -32 19 3 26 -2 13 -10 -7 -5 -10 -14 -7 -20 11 -17 23 -13 30 11 4 18 8
20 18 10 10 -10 10 -17 0 -32 -7 -12 -8 -21 -2 -25 6 -3 10 -31 10 -61 0 -35
4 -54 12 -54 9 0 9 -3 0 -12 -15 -15 -16 -42 -1 -32 8 5 10 -1 7 -20 -3 -14
-2 -26 2 -26 7 0 22 -74 26 -125 0 -11 2 -33 4 -50 l2 -30 9 30 c5 19 6 -2 2
-55 -6 -93 -8 -250 -3 -345 3 -80 -9 -517 -15 -524 -3 -2 -5 2 -5 10 0 11 -2
11 -10 -1 -13 -20 -13 -197 0 -205 6 -4 10 12 10 39 0 25 5 46 10 46 6 0 10
-31 10 -72 l0 -73 -23 26 -22 26 1 -116 c2 -151 1 -147 22 -167 15 -16 15 -17
0 -12 -17 7 -43 -14 -31 -25 7 -8 9 -22 19 -129 5 -61 4 -78 -6 -78 -9 0 -7
-6 5 -20 15 -17 18 -44 22 -192 2 -95 4 -177 4 -183 1 -5 -2 -100 -5 -210 -7
-224 -12 -538 -26 -1460 -5 -346 -14 -826 -20 -1065 -5 -239 -14 -640 -20
-890 -6 -250 -14 -458 -18 -462 -7 -7 -199 182 -321 317 l-53 60 1 305 c1 168
3 361 6 430 6 166 14 705 20 1345 3 286 7 649 10 808 5 247 4 287 -9 287 -8 0
-21 -20 -30 -47 -9 -27 -27 -61 -41 -78 l-24 -30 10 35 c5 19 10 58 10 85 0
28 5 75 11 105 12 56 38 117 38 90 0 -8 5 -33 11 -55 11 -39 12 -39 21 -15 5
13 11 222 13 465 6 681 24 1593 35 1765 11 168 21 879 13 911 -5 18 -19 19
-338 19 l-333 0 -7 -1217 c-4 -670 -8 -1272 -10 -1338 -8 -469 -26 -1316 -35
-1715 -6 -261 -15 -729 -19 -1040 -7 -477 -6 -568 5 -581 13 -14 3 -17 -103
-23 -80 -4 -156 -1 -238 8 -204 25 -350 48 -359 57 -8 7 -3 371 19 1494 3 121
7 492 10 825 3 333 10 839 15 1125 5 286 14 826 20 1200 5 374 12 798 15 943
l6 262 -81 0 -80 0 0 -542 c0 -299 -3 -655 -6 -793 -10 -450 -21 -1447 -23
-2114 -1 -359 -3 -656 -5 -660 -2 -3 -7 -303 -11 -666 -4 -363 -8 -705 -10
-760 -2 -55 -4 -144 -4 -199 l-1 -99 -35 6 c-21 3 -94 43 -170 91 -73 47 -149
93 -168 102 -20 9 -37 24 -39 33 -2 9 0 219 3 466 4 248 9 734 13 1080 3 347
8 691 11 765 6 174 13 550 26 1350 5 355 14 893 19 1195 5 303 10 594 10 648
l0 97 -537 0 -538 0 -1 -503 c-4 -1525 -4 -1795 -2 -1822 1 -16 -2 -47 -6 -67
-9 -48 -14 -48 -170 -3 -193 56 -197 58 -206 75 -9 17 -5 381 6 443 7 43 -11
123 -34 149 -8 10 -12 24 -9 32 3 8 -3 22 -14 32 -10 9 -19 29 -19 44 0 14 -5
31 -11 37 -13 13 -20 123 -8 123 21 0 12 39 -15 69 -106 116 -153 141 -266
141 -73 0 -117 17 -160 62 l-33 33 7 495 c4 272 9 532 13 578 l6 82 -607 0
-606 0 0 -239 c0 -257 -3 -270 -52 -258 -11 3 -31 1 -42 -5 -13 -8 -60 -11
-124 -9 -57 1 -108 -2 -115 -7 -7 -6 -40 -7 -77 -3 l-65 6 -1 55 c-1 30 -2
146 -3 258 l-1 202 -275 0 -276 0 1 -142z m6440 -33 c20 -24 4 -29 -19 -6 -14
14 -17 21 -7 21 7 0 19 -7 26 -15z m-5743 -381 c-3 -3 -12 -4 -19 -1 -8 3 -5
6 6 6 11 1 17 -2 13 -5z m-417 -94 c0 -5 -7 -10 -16 -10 -8 0 -12 5 -9 10 3 6
10 10 16 10 5 0 9 -4 9 -10z m-65 -11 c12 -19 -5 -23 -22 -6 -16 16 -16 17 -1
17 9 0 20 -5 23 -11z m298 -6 c-7 -2 -21 -2 -30 0 -10 3 -4 5 12 5 17 0 24 -2
18 -5z m-479 -121 c14 -8 -26 -26 -59 -26 -24 0 -31 5 -33 23 -3 22 -1 23 40
16 24 -4 47 -10 52 -13z m-219 -32 c-3 -5 -13 -10 -21 -10 -8 0 -12 5 -9 10 3
6 13 10 21 10 8 0 12 -4 9 -10z m428 -9 c49 -17 56 -18 61 -4 5 12 15 14 44 8
54 -10 61 -18 22 -26 -23 -5 -37 -3 -42 4 -6 9 -8 8 -8 -2 0 -11 -13 -12 -62
-7 -35 3 -71 6 -80 7 -21 0 -25 39 -5 39 8 0 39 -9 70 -19z m-103 -1 c0 -5 -4
-10 -9 -10 -6 0 -13 5 -16 10 -3 6 1 10 9 10 9 0 16 -4 16 -10z m3707 -97 c-3
-10 -5 -4 -5 12 0 17 2 24 5 18 2 -7 2 -21 0 -30z m-3653 11 c12 -30 5 -34
-58 -34 -55 0 -64 3 -69 19 -4 16 1 21 27 24 71 9 94 7 100 -9z m-157 -10 c2
-7 -7 -14 -21 -18 -13 -3 -31 -9 -40 -12 -25 -10 -19 21 7 34 26 13 49 11 54
-4z m-266 -45 c24 -12 16 -29 -15 -29 -28 0 -36 8 -29 26 6 17 18 18 44 3z
m-231 -73 c0 -9 10 -13 25 -12 14 0 25 3 25 6 0 3 12 7 26 8 19 1 25 -2 22
-16 -2 -9 -12 -16 -21 -16 -20 2 -32 -34 -23 -70 4 -18 1 -25 -14 -29 -11 -3
-27 1 -34 9 -19 18 -26 18 -26 -1 0 -19 -9 -19 -34 0 -19 15 -19 15 2 15 31 0
27 17 -5 23 -17 3 -34 0 -44 -9 -17 -15 -39 -19 -39 -6 1 13 27 42 39 42 6 0
11 5 11 11 0 5 8 21 18 34 19 27 72 35 72 11z m280 0 c-19 -17 -78 -37 -84
-27 -12 19 21 37 74 40 21 1 22 -1 10 -13z m4027 -43 c-3 -10 -5 -2 -5 17 0
19 2 27 5 18 2 -10 2 -26 0 -35z m-4202 -63 c-3 -5 -10 -10 -16 -10 -5 0 -9 5
-9 10 0 6 7 10 16 10 8 0 12 -4 9 -10z m142 -92 c-3 -8 -6 -5 -6 6 -1 11 2 17
5 13 3 -3 4 -12 1 -19z m4057 -138 c-5 -36 -8 -41 -14 -25 -9 22 -3 151 8 175
10 22 15 -97 6 -150z m-4349 103 c5 -18 2 -23 -10 -23 -12 0 -15 5 -11 16 4
12 2 15 -9 10 -13 -5 -14 -2 -4 15 12 23 23 17 34 -18z m900 -3 c3 -5 -3 -10
-14 -10 -11 0 -23 5 -26 10 -3 6 3 10 14 10 11 0 23 -4 26 -10z m-855 -4 c0
-3 -4 -8 -10 -11 -5 -3 -10 -1 -10 4 0 6 5 11 10 11 6 0 10 -2 10 -4z m1266
-147 c19 -22 19 -22 -1 -11 -41 22 -125 113 -125 136 0 5 88 -83 126 -125z
m-1306 55 c0 -9 -7 -14 -17 -12 -25 5 -28 28 -4 28 12 0 21 -6 21 -16z m200
-63 c0 -3 -16 -17 -35 -30 -39 -26 -45 -41 -16 -41 25 0 34 -15 26 -41 -4 -13
-12 -18 -22 -15 -9 4 -21 -1 -27 -9 -14 -19 -116 -33 -116 -16 0 6 7 28 15 48
8 19 15 48 15 64 0 24 4 29 24 29 15 0 26 -7 29 -17 4 -14 5 -13 6 4 0 12 6
23 12 25 18 6 89 6 89 -1z m4131 -273 c-8 -29 -9 -25 -10 38 -1 39 2 74 7 78
11 12 14 -78 3 -116z m-4211 -29 c0 -5 -12 -9 -27 -10 -25 0 -26 -1 -8 -9 18
-7 18 -9 -10 -20 -27 -10 -28 -13 -13 -24 13 -10 15 -15 6 -24 -33 -33 -45 18
-20 79 9 22 15 25 41 21 17 -2 31 -8 31 -13z m300 -48 c0 -5 -7 -12 -16 -15
-22 -9 -24 -8 -24 9 0 8 9 15 20 15 11 0 20 -4 20 -9z m-160 -86 c0 -8 -7 -15
-15 -15 -8 0 -15 7 -15 15 0 8 7 15 15 15 8 0 15 -7 15 -15z m133 -30 c12 -8
32 -15 44 -15 14 0 23 -6 23 -15 0 -24 -25 -28 -62 -11 -21 10 -57 15 -101 13
-66 -2 -87 5 -46 16 11 3 23 14 26 25 4 17 10 18 49 11 25 -5 55 -15 67 -24z
m-262 -16 c8 -5 10 -9 4 -10 -5 -1 -14 -3 -20 -4 -5 -2 -14 -3 -20 -4 -5 -1 4
-8 20 -15 l30 -13 -24 -12 c-19 -11 -28 -11 -48 0 -19 10 -26 10 -32 1 -4 -6
-28 -15 -54 -18 l-46 -7 11 39 c5 22 12 42 14 46 7 11 148 8 165 -3z m4202
-61 l-10 -33 -8 27 c-9 36 1 66 17 50 8 -8 8 -21 1 -44z m-4278 -57 c8 -14
-10 -22 -30 -15 -13 5 -14 8 -3 15 17 11 26 11 33 0z m855 -69 c0 -4 -16 -6
-35 -4 -19 2 -35 6 -35 8 0 2 16 4 35 4 19 0 35 -4 35 -8z m-130 -22 c13 -8
13 -10 -1 -10 -9 0 -31 -3 -48 -6 -19 -4 -31 -2 -31 4 0 6 12 13 28 15 15 2
29 5 32 5 3 1 12 -3 20 -8z m3550 -20 c0 -16 -4 -30 -10 -30 -5 0 -10 14 -10
30 0 17 5 30 10 30 6 0 10 -13 10 -30z m2682 -12 c-7 -7 -12 -8 -12 -2 0 14
12 26 19 19 2 -3 -1 -11 -7 -17z m-6412 -44 c0 -28 5 -44 13 -45 6 -1 24 -2
39 -3 15 -1 41 -14 57 -30 17 -17 38 -27 52 -26 13 1 57 2 98 1 70 -1 73 -2
68 -23 -8 -31 10 -58 38 -58 27 0 28 -1 19 -24 -3 -8 -12 -12 -20 -9 -8 3 -14
0 -14 -7 0 -6 8 -10 18 -8 9 1 23 -1 30 -5 6 -5 12 -4 12 1 0 5 11 17 26 26
22 15 33 16 98 5 l74 -12 48 31 c26 18 56 32 66 32 11 0 38 9 61 20 23 12 62
24 87 27 25 3 62 14 82 24 38 20 50 23 131 35 26 3 47 10 47 14 0 4 33 10 73
13 91 9 117 16 117 33 0 19 37 18 134 -5 44 -11 108 -23 141 -26 73 -8 159
-47 192 -85 16 -19 29 -26 43 -23 11 3 17 9 15 13 -6 10 38 16 81 12 24 -3 37
-14 59 -50 16 -26 33 -55 37 -66 5 -10 14 -16 23 -13 9 4 17 -2 21 -16 4 -12
18 -32 32 -44 15 -13 23 -27 19 -37 -4 -9 5 -45 19 -82 21 -56 24 -76 18 -132
-3 -37 -8 -70 -11 -74 -9 -16 -72 -7 -119 17 -65 33 -111 33 -124 1 -13 -34
-48 -56 -92 -56 -20 0 -40 -4 -43 -10 -3 -5 -31 -10 -61 -10 -30 0 -62 -4 -72
-9 -24 -12 -59 -25 -122 -46 -30 -9 -79 -28 -108 -41 -29 -13 -55 -24 -58 -24
-4 0 -34 -13 -68 -29 -33 -16 -88 -41 -121 -55 -109 -48 -174 -154 -137 -222
6 -11 10 -34 10 -52 -1 -37 23 -78 52 -87 11 -4 20 -16 21 -28 1 -17 2 -18 6
-4 2 9 9 17 14 17 5 0 9 7 9 15 0 8 5 15 10 15 6 0 16 11 22 25 13 28 33 33
42 10 4 -11 21 -15 62 -15 47 0 54 2 45 14 -9 10 -6 17 11 28 54 36 171 89
184 84 8 -3 24 -27 37 -53 27 -57 69 -82 140 -83 61 0 79 10 118 66 l31 46 26
-25 c16 -17 32 -51 44 -98 10 -40 22 -77 26 -81 4 -4 26 1 47 12 39 20 55 37
115 130 16 25 45 56 65 70 19 14 39 38 45 54 8 23 14 27 32 22 13 -3 31 -6 42
-6 31 0 86 -66 86 -104 0 -18 3 -36 7 -40 9 -9 31 -110 32 -145 1 -13 8 -29
18 -36 14 -10 15 -19 6 -56 -6 -24 -11 -86 -12 -138 -1 -52 -7 -117 -13 -145
-6 -28 -12 -72 -13 -97 -1 -25 -7 -54 -13 -65 -5 -10 -13 -55 -16 -99 -8 -95
-24 -172 -40 -200 -7 -11 -25 -54 -41 -95 -16 -41 -38 -88 -51 -105 -26 -36
-104 -188 -104 -204 0 -6 -4 -11 -10 -11 -5 0 -17 -15 -26 -32 -9 -18 -30 -48
-45 -66 -16 -18 -29 -38 -29 -45 0 -7 -12 -23 -25 -36 -14 -13 -28 -34 -31
-46 -3 -13 -12 -26 -19 -29 -8 -3 -17 -21 -21 -41 -5 -29 -10 -35 -25 -30 -15
5 -19 1 -19 -18 0 -32 -56 -157 -69 -157 -13 0 -41 -22 -99 -78 -36 -35 -49
-42 -69 -37 -19 4 -26 1 -30 -14 -3 -13 -17 -23 -38 -27 -22 -4 -35 -13 -38
-26 -4 -15 -11 -18 -27 -13 -13 4 -28 1 -38 -8 -9 -9 -29 -19 -44 -22 -16 -4
-28 -11 -28 -16 0 -13 -44 -11 -57 2 -6 6 -30 13 -53 15 -36 3 -42 1 -50 -22
-6 -14 -19 -28 -30 -31 -23 -6 -26 -32 -7 -52 10 -12 8 -12 -8 -6 -38 16 -127
18 -136 4 -8 -11 -11 -11 -20 3 -5 10 -20 17 -32 16 -12 -1 -36 2 -54 6 -26 6
-34 4 -43 -13 -6 -12 -21 -21 -33 -21 -68 0 -96 -7 -116 -30 -14 -17 -23 -21
-28 -14 -14 19 -60 25 -72 10 -9 -11 -20 -12 -48 -4 -20 5 -50 7 -67 4 -17 -4
-40 -8 -52 -9 -11 -1 -28 -8 -36 -15 -13 -11 -17 -9 -22 10 -6 22 -66 68 -89
68 -7 0 -39 14 -72 30 -33 16 -68 30 -77 30 -9 0 -20 5 -23 10 -4 6 -14 8 -23
6 -22 -7 -39 4 -43 29 -3 15 -14 21 -39 23 -19 2 -40 8 -47 13 -7 7 -13 6 -18
-1 -3 -5 -15 -10 -26 -10 -16 0 -18 5 -13 25 7 28 -10 35 -21 8 -6 -16 -8 -16
-23 3 -9 12 -28 24 -42 27 -28 7 -48 24 -100 87 -19 23 -47 56 -62 72 -16 16
-28 35 -28 44 0 8 -11 19 -23 25 -15 7 -36 37 -56 77 -17 37 -42 85 -56 107
-14 22 -27 47 -31 55 -4 8 -19 42 -35 75 -16 33 -35 78 -43 100 -7 22 -18 39
-23 38 -4 -1 -7 16 -5 37 2 21 -1 41 -7 44 -6 4 -11 20 -11 36 0 45 -42 162
-67 190 -13 14 -37 54 -53 90 -17 36 -40 83 -51 105 -137 254 -199 405 -244
595 -21 90 -21 105 -12 260 9 157 11 166 35 193 14 15 36 27 48 27 60 0 190
-91 196 -136 2 -15 9 -29 16 -32 10 -3 13 10 12 49 -1 30 1 148 4 263 5 200 6
209 28 230 25 22 37 47 94 196 20 52 51 112 68 133 61 74 195 116 274 86 23
-9 24 -10 7 -23 -21 -15 -14 -21 37 -30 37 -7 78 6 78 24 0 5 -16 12 -35 16
-33 6 -50 24 -22 24 10 0 13 13 11 45 -2 35 2 51 19 70 25 28 133 76 154 68 8
-3 13 -21 13 -49z m3730 -123 c0 -33 -4 -63 -10 -66 -6 -4 -10 18 -10 59 0 37
4 66 10 66 6 0 10 -26 10 -59z m-3925 39 c3 -5 1 -10 -4 -10 -6 0 -11 5 -11
10 0 6 2 10 4 10 3 0 8 -4 11 -10z m5855 -136 c0 -9 -7 -14 -17 -12 -25 5 -28
28 -4 28 12 0 21 -6 21 -16z m69 -71 c45 -53 49 -74 25 -143 -15 -43 -15 -45
5 -59 24 -15 27 -49 10 -117 -13 -52 -24 -56 -38 -11 -18 60 -22 93 -12 119 7
18 6 41 -3 74 -8 27 -19 74 -26 104 -7 30 -15 61 -17 68 -11 27 18 9 56 -35z
m111 27 c0 -5 -7 -10 -16 -10 -8 0 -12 5 -9 10 3 6 10 10 16 10 5 0 9 -4 9
-10z m67 -72 c40 -44 52 -81 46 -141 -9 -88 -39 -59 -62 59 -7 32 -14 69 -17
82 -2 12 -1 22 4 22 5 0 18 -10 29 -22z m-2190 -115 c-2 -21 -4 -4 -4 37 0 41
2 58 4 38 2 -21 2 -55 0 -75z m1753 21 c0 -20 -4 -25 -16 -20 -9 3 -28 9 -42
13 l-27 6 30 13 c44 19 55 17 55 -12z m485 -120 c8 -9 14 -24 11 -33 -2 -9 -8
-35 -11 -59 l-7 -42 -18 22 c-21 28 -31 86 -18 111 11 21 22 22 43 1z m-2238
-61 c-2 -16 -4 -5 -4 22 0 28 2 40 4 28 2 -13 2 -35 0 -50z m-10 -140 c-3 -10
-5 -4 -5 12 0 17 2 24 5 18 2 -7 2 -21 0 -30z m-1685 -37 c4 -6 8 -16 8 -22 0
-7 12 -19 26 -29 14 -9 23 -19 19 -23 -3 -4 -10 0 -15 8 -6 11 -14 7 -35 -18
-15 -18 -42 -36 -63 -41 -20 -5 -122 -11 -227 -13 -169 -3 -190 -1 -193 13 -4
23 39 67 92 94 39 20 92 30 241 49 48 6 139 -5 147 -18z m3746 -98 c25 -31 24
-101 -2 -173 -14 -38 -26 -71 -26 -72 0 -1 -9 -7 -21 -14 -19 -10 -20 -9 -14
11 4 11 8 56 9 98 3 80 20 162 35 162 5 0 13 -6 19 -12z m-2987 -153 c9 -30
13 -93 12 -160 -1 -105 -4 -121 -54 -300 -19 -71 -34 -104 -53 -115 -17 -11
-18 -10 -12 12 4 12 10 40 13 61 3 20 8 37 12 37 3 0 6 55 7 123 0 67 -1 89
-3 50 -2 -40 -8 -73 -13 -73 -6 0 -10 -11 -10 -23 0 -28 -61 -118 -68 -99 -2
7 1 57 7 112 11 101 6 185 -12 208 -5 7 -10 37 -10 68 0 30 -4 57 -8 60 -5 2
-4 16 1 29 5 14 7 31 4 38 -3 8 2 20 11 27 13 11 15 9 15 -10 0 -12 8 -34 18
-48 11 -15 25 -56 32 -92 7 -36 16 -69 21 -74 12 -13 31 71 25 113 -3 25 1 42
12 55 11 12 16 33 15 65 -1 46 -1 46 12 16 7 -16 19 -52 26 -80z m-958 73
c104 -22 64 -38 -98 -38 -144 0 -305 -30 -358 -65 -15 -10 -30 -15 -33 -12 -7
7 160 95 226 118 60 21 150 20 263 -3z m-173 -89 c0 -18 -4 -20 -27 -14 -36 9
-41 14 -23 25 26 17 50 11 50 -11z m-330 -44 c0 -8 -61 -37 -67 -32 -2 3 8 12
24 20 30 16 43 20 43 12z m4321 -144 c-20 -36 -99 -71 -89 -38 3 9 82 57 95
57 2 0 -1 -8 -6 -19z m1114 -232 c0 -32 -4 -45 -16 -47 -20 -4 -34 65 -17 85
19 24 33 8 33 -38z m-2 -119 c-1 -19 -3 -80 -5 -135 -4 -128 -22 -143 -25 -20
-1 50 -4 103 -7 118 -8 42 3 79 23 75 12 -3 15 -13 14 -38z m-4193 -359 c0
-17 -22 -71 -30 -71 -13 0 -19 54 -8 68 12 14 38 16 38 3z m4180 -66 c0 -19
-4 -35 -10 -35 -5 0 -10 16 -10 35 0 19 5 35 10 35 6 0 10 -16 10 -35z m-2913
-162 c-2 -21 -4 -4 -4 37 0 41 2 58 4 38 2 -21 2 -55 0 -75z m1842 -565 c-1
-205 -5 -445 -9 -533 -6 -107 -7 -28 -4 240 2 220 4 460 4 533 0 72 2 132 5
132 3 0 5 -168 4 -372z m-2648 -115 c6 -42 3 -312 -3 -325 -8 -16 -25 -18
-138 -18 l-128 0 -24 30 c-13 17 -42 53 -65 82 -23 28 -40 54 -38 59 3 4 35
17 71 29 63 20 126 50 254 120 57 31 69 35 71 23z m-1104 -145 c-3 -8 -6 -5
-6 6 -1 11 2 17 5 13 3 -3 4 -12 1 -19z m-2130 -520 c-3 -8 -6 -5 -6 6 -1 11
2 17 5 13 3 -3 4 -12 1 -19z m350 -4 c23 -22 166 -85 181 -79 9 3 12 0 9 -8
-8 -22 182 -104 363 -157 41 -12 86 -26 99 -31 106 -43 553 -75 700 -50 31 6
97 17 146 25 50 9 109 18 132 20 23 3 52 10 63 16 12 6 24 9 28 6 3 -3 -1 -6
-8 -6 -7 0 -10 -3 -6 -7 4 -5 24 -8 44 -8 26 0 37 -4 37 -15 0 -9 -9 -15 -22
-15 -13 0 -23 -3 -23 -7 0 -5 0 -12 0 -18 0 -5 11 -10 25 -10 18 0 25 -5 25
-20 0 -12 12 -25 33 -35 17 -8 49 -31 69 -50 20 -19 44 -35 52 -35 12 0 16
-10 16 -40 0 -28 4 -40 14 -40 8 0 18 5 22 11 3 6 15 8 27 5 11 -3 28 -1 37 4
12 6 23 5 36 -5 11 -8 29 -15 42 -15 12 0 23 -4 23 -10 4 -30 2 -38 -16 -68
-18 -30 -23 -32 -58 -27 -20 4 -68 2 -106 -5 l-68 -11 -110 -112 c-60 -62
-148 -145 -196 -186 -48 -40 -87 -78 -87 -83 0 -19 -154 -159 -172 -156 -9 2
-57 41 -105 88 -84 82 -192 170 -207 170 -4 0 -22 11 -39 24 -18 13 -111 63
-207 111 -96 48 -179 90 -185 94 -5 4 -26 14 -45 21 -19 8 -51 26 -70 41 -20
15 -53 31 -74 35 -21 4 -64 17 -95 28 -62 24 -72 36 -215 251 -104 155 -143
239 -162 349 -6 37 -6 38 17 31 13 -4 29 -14 36 -21z m-297 -414 c0 -11 -4
-20 -9 -20 -5 0 -7 9 -4 20 3 11 7 20 9 20 2 0 4 -9 4 -20z m350 -215 c15 -19
-3 -45 -31 -45 -24 0 -32 16 -19 40 13 24 33 26 50 5z m-2842 -336 c-3 -8 -7
-3 -11 10 -4 17 -3 21 5 13 5 -5 8 -16 6 -23z m-408 1 c0 -5 -5 -10 -11 -10
-5 0 -7 5 -4 10 3 6 8 10 11 10 2 0 4 -4 4 -10z m940 -156 c0 -8 -5 -12 -10
-9 -6 4 -8 11 -5 16 9 14 15 11 15 -7z m-1212 -46 c-2 -5 -7 -9 -11 -9 -4 1
-14 1 -22 1 -26 0 -16 15 10 16 15 1 25 -2 23 -8z m-8 -49 c0 -5 -13 -9 -30
-9 -21 0 -28 4 -24 14 5 14 54 10 54 -5z m444 -21 c5 -10 7 -10 12 0 10 21 24
13 24 -13 0 -14 -4 -25 -8 -25 -5 0 -19 11 -32 25 -13 14 -19 25 -13 25 6 0
14 -6 17 -12z m4236 -4 c0 -17 -22 -14 -28 4 -2 7 3 12 12 12 9 0 16 -7 16
-16z m104 -13 c8 -12 -21 -34 -34 -26 -17 11 -11 35 9 35 11 0 22 -4 25 -9z
m-64 -21 c0 -5 -2 -10 -4 -10 -3 0 -8 5 -11 10 -3 6 -1 10 4 10 6 0 11 -4 11
-10z m3676 -27 c13 -18 20 -52 7 -40 -3 4 -12 2 -20 -4 -10 -9 -13 -7 -13 9 0
11 -3 27 -6 36 -8 22 15 20 32 -1z m-6569 -13 c1 -11 -2 -20 -6 -20 -13 0 -32
26 -24 33 13 14 29 7 30 -13z m-2387 -10 c0 -5 -4 -10 -10 -10 -5 0 -10 5 -10
10 0 6 5 10 10 10 6 0 10 -4 10 -10z m970 -10 c0 -5 -4 -10 -10 -10 -5 0 -10
5 -10 10 0 6 5 10 10 10 6 0 10 -4 10 -10z m6085 0 c4 -6 -7 -10 -24 -10 -17
0 -31 5 -31 10 0 6 11 10 24 10 14 0 28 -4 31 -10z m1865 -25 c0 -8 5 -15 12
-15 6 0 9 -2 7 -5 -3 -2 -15 -2 -27 2 -25 6 -30 33 -7 33 8 0 15 -7 15 -15z
m-8940 -15 c-34 -11 -60 -11 -35 0 11 5 29 8 40 8 16 0 15 -2 -5 -8z m1235 0
c3 -5 1 -10 -4 -10 -6 0 -11 5 -11 10 0 6 2 10 4 10 3 0 8 -4 11 -10z m-100
-10 c-3 -5 -11 -10 -16 -10 -6 0 -7 5 -4 10 3 6 11 10 16 10 6 0 7 -4 4 -10z
m3770 0 c3 -5 1 -10 -4 -10 -6 0 -11 5 -11 10 0 6 2 10 4 10 3 0 8 -4 11 -10z
m-3641 -54 c-3 -15 -8 -25 -11 -23 -2 3 -1 17 3 31 3 15 8 25 11 23 2 -3 1
-17 -3 -31z m-1256 2 c-5 -15 -23 -11 -26 6 -2 11 2 14 13 10 9 -4 14 -11 13
-16z m-608 2 c0 -5 -7 -10 -16 -10 -8 0 -12 5 -9 10 3 6 10 10 16 10 5 0 9 -4
9 -10z m1720 -21 c0 -10 -4 -19 -9 -19 -10 0 -21 36 -14 44 10 10 23 -5 23
-25z m90 16 c-7 -8 -17 -15 -22 -15 -6 0 -5 7 2 15 7 8 17 15 22 15 6 0 5 -7
-2 -15z m6030 -11 c0 -8 -4 -12 -10 -9 -5 3 -10 10 -10 16 0 5 5 9 10 9 6 0
10 -7 10 -16z m-5550 -10 c0 -8 -4 -12 -10 -9 -5 3 -10 10 -10 16 0 5 5 9 10
9 6 0 10 -7 10 -16z m354 -19 c-4 -8 -10 -15 -15 -15 -5 0 -9 7 -9 15 0 8 7
15 15 15 9 0 12 -6 9 -15z m-854 -44 c0 -24 0 -24 -21 -5 -12 10 -24 18 -28
16 -3 -2 -7 4 -9 12 -4 20 14 21 22 1 9 -24 28 -18 21 8 -5 17 -4 19 4 7 6 -8
11 -26 11 -39z m842 -23 c-7 -7 -12 -8 -12 -2 0 14 12 26 19 19 2 -3 -1 -11
-7 -17z m-2274 6 c26 -7 30 -32 5 -30 -13 1 -19 -8 -21 -28 l-4 -29 -14 28
c-10 19 -11 32 -4 40 5 6 7 15 3 18 -8 9 5 9 35 1z m7362 -15 c0 -5 -7 -9 -15
-9 -15 0 -20 12 -9 23 8 8 24 -1 24 -14z m-5193 -44 c6 -14 7 -25 2 -25 -5 0
-7 -11 -3 -24 3 -13 1 -27 -5 -30 -7 -5 -11 5 -11 26 0 18 -3 43 -6 56 -8 30
8 28 23 -3z m5331 -9 c3 -20 0 -27 -10 -24 -7 3 -14 17 -16 32 -3 20 0 27 10
24 7 -3 14 -17 16 -32z m-2269 -18 c0 -27 -2 -29 -8 -13 -5 11 -6 26 -4 33 8
21 13 13 12 -20z m-7539 -118 c0 -5 -4 -10 -10 -10 -5 0 -10 5 -10 10 0 6 5
10 10 10 6 0 10 -4 10 -10z m60 -81 c0 -5 -8 -9 -17 -9 -16 -1 -15 -2 2 -12
24 -13 59 -48 49 -48 -4 0 -16 8 -27 18 -15 12 -21 14 -24 5 -8 -21 -33 -15
-33 8 0 16 -5 20 -20 16 -22 -6 -26 3 -9 20 13 13 79 15 79 2z m5300 1 c0 -5
-4 -10 -10 -10 -5 0 -10 5 -10 10 0 6 5 10 10 10 6 0 10 -4 10 -10z m2010 -29
c0 -12 -20 -25 -27 -18 -7 7 6 27 18 27 5 0 9 -4 9 -9z m-55 -27 c14 -10 15
-14 5 -14 -8 0 -28 9 -45 21 -28 19 -28 20 -5 13 14 -3 34 -13 45 -20z m-1902
-8 c4 -10 0 -12 -14 -9 -22 6 -26 23 -5 23 8 0 16 -6 19 -14z m1827 -6 c0 -5
-4 -10 -10 -10 -5 0 -10 5 -10 10 0 6 5 10 10 10 6 0 10 -4 10 -10z m-2360
-40 c0 -5 -5 -10 -11 -10 -5 0 -7 5 -4 10 3 6 8 10 11 10 2 0 4 -4 4 -10z
m550 -25 c0 -8 -4 -15 -10 -15 -5 0 -10 7 -10 15 0 8 5 15 10 15 6 0 10 -7 10
-15z m-107 -57 c-16 -18 -18 -19 -21 -3 -4 19 16 37 31 28 4 -3 0 -14 -10 -25z
m57 28 c0 -3 -4 -8 -10 -11 -5 -3 -10 -1 -10 4 0 6 5 11 10 11 6 0 10 -2 10
-4z m1900 -6 c0 -5 -4 -10 -10 -10 -5 0 -10 5 -10 10 0 6 5 10 10 10 6 0 10
-4 10 -10z m210 -15 c0 -8 7 -15 15 -15 8 0 15 -9 15 -19 0 -23 16 -37 22 -19
4 12 12 5 66 -55 19 -20 23 -32 17 -56 -4 -17 -11 -31 -17 -31 -6 0 -7 7 -4
16 4 10 1 14 -6 12 -18 -6 -22 -36 -8 -53 18 -21 29 -18 40 10 14 37 23 30 17
-12 -8 -50 1 -87 18 -73 19 15 42 -15 26 -34 -8 -10 -9 -16 -1 -21 18 -11 11
-31 -15 -43 -23 -11 -25 -10 -25 13 0 14 -5 25 -10 25 -6 0 -10 6 -9 13 3 26
-2 37 -17 37 -10 0 -14 -7 -12 -21 2 -13 -5 -27 -17 -35 -18 -12 -24 -11 -48
10 -33 29 -33 31 -1 32 35 3 40 11 21 32 -10 10 -17 26 -17 35 0 9 -6 17 -14
17 -19 0 -30 -17 -16 -23 6 -3 5 -4 -2 -3 -7 2 -13 17 -14 34 0 43 -41 74 -91
70 -21 -2 -40 2 -43 7 -3 6 15 11 43 12 58 2 81 9 72 23 -4 6 -11 8 -16 5 -17
-11 -9 8 13 32 12 13 16 23 9 23 -17 0 -31 42 -19 58 14 17 28 15 28 -3z
m-480 -39 c0 -3 -4 -8 -10 -11 -5 -3 -10 -1 -10 4 0 6 5 11 10 11 6 0 10 -2
10 -4z m150 -46 c0 -5 -4 -10 -10 -10 -5 0 -10 5 -10 10 0 6 5 10 10 10 6 0
10 -4 10 -10z m80 -20 c0 -5 -2 -10 -4 -10 -3 0 -8 5 -11 10 -3 6 -1 10 4 10
6 0 11 -4 11 -10z m-95 -10 c3 -5 -1 -10 -9 -10 -9 0 -16 5 -16 10 0 6 4 10 9
10 6 0 13 -4 16 -10z m105 -50 c12 -8 11 -10 -7 -10 -13 0 -23 5 -23 10 0 13
11 13 30 0z m-1565 -16 c-9 -9 -19 -13 -23 -10 -3 4 0 11 8 16 24 15 33 11 15
-6z m1735 -10 c0 -14 -3 -14 -15 -4 -8 7 -15 14 -15 16 0 2 7 4 15 4 8 0 15
-7 15 -16z m36 -11 c-10 -10 -19 5 -10 18 6 11 8 11 12 0 2 -7 1 -15 -2 -18z
m-261 7 c3 -5 2 -10 -4 -10 -5 0 -13 5 -16 10 -3 6 -2 10 4 10 5 0 13 -4 16
-10z m65 0 c0 -5 -4 -10 -9 -10 -6 0 -13 5 -16 10 -3 6 1 10 9 10 9 0 16 -4
16 -10z m-1665 -10 c3 -5 1 -10 -4 -10 -6 0 -11 5 -11 10 0 6 2 10 4 10 3 0 8
-4 11 -10z m1630 -10 c3 -5 1 -10 -4 -10 -6 0 -11 5 -11 10 0 6 2 10 4 10 3 0
8 -4 11 -10z m-1979 -37 c-10 -10 -19 5 -10 18 6 11 8 11 12 0 2 -7 1 -15 -2
-18z m2254 -43 c0 -4 -6 -12 -13 -18 -8 -7 -11 -25 -9 -48 4 -29 7 -33 14 -20
14 25 32 19 47 -16 16 -36 30 -50 44 -41 5 3 3 9 -4 14 -20 12 17 12 40 0 19
-11 21 -65 2 -84 -16 -16 -14 -34 7 -64 9 -15 18 -43 19 -63 2 -42 6 -61 16
-78 5 -7 6 -20 3 -30 -5 -18 35 -72 54 -72 6 0 9 4 5 9 -3 5 -1 12 5 16 5 3
10 -1 10 -9 0 -19 17 -21 22 -4 2 6 9 8 15 5 8 -5 4 -15 -12 -31 -25 -25 -24
-49 5 -143 12 -41 12 -44 -12 -68 -22 -22 -27 -23 -38 -10 -7 8 -19 15 -26 15
-8 0 -15 8 -15 18 -1 16 -2 16 -6 0 -6 -25 -23 -23 -23 2 0 11 -16 34 -35 51
-19 17 -37 39 -40 50 -8 24 11 50 31 42 8 -3 14 -1 14 4 0 18 -12 22 -35 13
-29 -11 -39 -2 -19 17 8 8 12 19 9 24 -4 5 1 6 9 3 13 -5 13 0 -3 37 -18 45
-22 135 -6 173 8 17 5 19 -28 13 -33 -5 -36 -4 -42 24 -4 16 -10 29 -15 29 -4
0 -13 14 -20 30 -13 30 -30 40 -30 18 0 -7 -5 -5 -11 6 -9 14 -8 20 1 26 8 5
10 18 6 34 -3 14 -2 26 3 26 21 0 18 30 -5 55 -29 31 -29 33 -6 58 12 15 14
21 5 24 -7 3 -13 11 -13 20 0 10 12 5 40 -17 22 -17 40 -35 40 -40z m-137 -6
c-8 -20 -18 -17 -31 9 -10 21 -11 21 -13 2 -1 -11 -1 -26 0 -32 1 -7 -2 -13
-8 -13 -12 0 -10 72 3 86 13 14 57 -32 49 -52z m51 50 c10 -25 6 -41 -5 -21
-5 9 -20 17 -32 17 -18 0 -19 2 -7 10 22 14 37 12 44 -6z m-1717 0 c-3 -3 -12
-4 -19 -1 -8 3 -5 6 6 6 11 1 17 -2 13 -5z m-544 -35 c-36 -15 -47 -10 -28 11
14 16 21 18 32 8 13 -10 12 -13 -4 -19z m147 21 c0 -14 28 -12 33 3 5 16 33
-6 40 -33 5 -20 -7 -25 -52 -22 -8 0 -20 -6 -28 -14 -9 -9 -10 -14 -3 -14 15
0 7 -74 -10 -95 -22 -27 -31 -16 -26 35 4 42 2 52 -13 62 -21 13 -18 30 13 63
22 24 46 32 46 15z m370 -4 c0 -3 -4 -8 -10 -11 -5 -3 -10 -1 -10 4 0 6 5 11
10 11 6 0 10 -2 10 -4z m-480 -40 c0 -2 -9 -6 -20 -9 -11 -3 -20 -1 -20 4 0 5
9 9 20 9 11 0 20 -2 20 -4z m537 -41 c10 -27 -6 -30 -29 -7 l-22 22 22 0 c12
0 25 -7 29 -15z m1903 -18 c0 -14 -20 -37 -32 -37 -12 0 -10 24 4 38 16 16 28
15 28 -1z m-2450 -13 c0 -8 -4 -12 -10 -9 -5 3 -10 10 -10 16 0 5 5 9 10 9 6
0 10 -7 10 -16z m2580 6 c0 -5 -2 -10 -4 -10 -3 0 -8 5 -11 10 -3 6 -1 10 4
10 6 0 11 -4 11 -10z m-2609 -21 c25 -25 22 -30 -8 -18 -13 5 -23 15 -23 24 0
20 6 19 31 -6z m349 17 c0 -3 -4 -8 -10 -11 -5 -3 -10 -1 -10 4 0 6 5 11 10
11 6 0 10 -2 10 -4z m2285 -55 c-4 -31 -1 -42 12 -50 16 -9 16 -10 -4 -11 -18
0 -23 7 -29 37 -5 25 -3 38 5 41 6 2 9 8 5 13 -3 5 0 9 5 9 7 0 9 -15 6 -39z
m-2650 0 c3 -5 1 -12 -4 -15 -12 -8 -41 3 -41 15 0 12 37 12 45 0z m292 -37
c-26 -24 -27 -24 -27 -4 0 12 9 24 23 29 33 13 34 3 4 -25z m2263 22 c0 -3 -4
-8 -10 -11 -5 -3 -10 -1 -10 4 0 6 5 11 10 11 6 0 10 -2 10 -4z m-2650 -63 c0
-13 -3 -13 -15 -3 -8 7 -15 16 -15 21 0 5 7 6 15 3 8 -4 15 -13 15 -21z m2625
-32 c-17 -17 -17 -13 2 37 6 16 6 16 11 -2 2 -10 -4 -26 -13 -35z m-2575 29
c0 -5 -7 -10 -15 -10 -8 0 -15 5 -15 10 0 6 7 10 15 10 8 0 15 -4 15 -10z
m380 -84 c0 -3 -4 -8 -10 -11 -5 -3 -10 -1 -10 4 0 6 5 11 10 11 6 0 10 -2 10
-4z m-425 -15 c3 -5 1 -12 -5 -16 -5 -3 -10 1 -10 9 0 18 6 21 15 7z m-30 -31
c3 -5 1 -10 -4 -10 -6 0 -11 5 -11 10 0 6 2 10 4 10 3 0 8 -4 11 -10z m36 -53
c-16 -16 -26 0 -10 19 9 11 15 12 17 4 2 -6 -1 -17 -7 -23z m769 -17 c0 -5 -4
-10 -9 -10 -6 0 -13 5 -16 10 -3 6 1 10 9 10 9 0 16 -4 16 -10z m-16 -145 c-4
-8 -11 -15 -16 -15 -6 0 -5 6 2 15 7 8 14 15 16 15 2 0 1 -7 -2 -15z m92 -9
c-4 -18 -1 -26 11 -29 17 -4 17 -5 0 -6 -20 -1 -32 21 -23 44 9 24 19 17 12
-9z m56 -42 c-4 -22 -6 -24 -14 -10 -9 16 -3 36 11 36 5 0 6 -12 3 -26z m-92
-23 c0 -6 -4 -13 -10 -16 -5 -3 -10 1 -10 9 0 9 5 16 10 16 6 0 10 -4 10 -9z
m12 -54 c14 -7 23 -17 21 -23 -4 -12 26 -28 36 -19 3 3 0 15 -7 25 -15 25 -15
30 2 30 18 0 28 -38 16 -60 -6 -12 -5 -23 5 -36 8 -11 15 -29 15 -41 0 -12 5
-25 10 -28 6 -4 10 -3 9 2 -1 4 1 16 6 27 7 17 9 17 21 -5 8 -16 9 -28 3 -36
-7 -7 -6 -13 1 -18 15 -9 12 -35 -4 -35 -8 0 -16 6 -19 14 -4 9 -16 13 -34 11
-15 -2 -33 1 -39 6 -8 6 -17 4 -27 -6 -21 -21 -44 -19 -57 5 -17 31 0 47 20
20 l17 -23 19 32 c19 32 37 42 32 17 -2 -8 2 -15 7 -15 15 0 10 80 -6 90 -8 5
-24 7 -36 4 -25 -6 -30 4 -12 22 15 15 3 34 -16 26 -9 -3 -15 1 -15 11 0 19 1
19 32 3z m-42 -27 c0 -5 -2 -10 -4 -10 -3 0 -8 5 -11 10 -3 6 -1 10 4 10 6 0
11 -4 11 -10z m10 -30 c0 -5 -5 -10 -11 -10 -5 0 -7 5 -4 10 3 6 8 10 11 10 2
0 4 -4 4 -10z m1964 -52 c9 -23 10 -37 3 -46 -5 -7 -7 -15 -3 -19 3 -3 6 -2 6
4 0 6 11 8 25 5 14 -2 25 -11 25 -19 0 -8 7 -27 16 -44 21 -41 11 -68 -24 -65
-16 2 -28 10 -30 20 -3 12 2 16 14 14 11 -2 20 4 22 15 3 14 -2 18 -20 16 -13
-1 -43 -1 -68 0 -36 1 -41 4 -27 12 21 12 23 39 2 39 -8 0 -15 8 -15 19 0 12
-11 21 -32 27 -18 6 -33 16 -33 24 0 21 40 24 76 6 29 -15 31 -14 36 4 7 27
11 25 27 -12z m-1979 -8 c3 -5 1 -10 -4 -10 -6 0 -11 5 -11 10 0 6 2 10 4 10
3 0 8 -4 11 -10z m245 -20 c0 -5 -8 -10 -17 -10 -15 0 -16 2 -3 10 19 12 20
12 20 0z m-105 -96 c13 4 14 2 5 -14 -17 -31 -27 -32 -58 -1 -32 32 -22 47 15
23 13 -8 30 -12 38 -8z m56 -8 c-6 -7 -9 -21 -5 -30 4 -11 1 -16 -10 -16 -9 0
-16 6 -16 14 0 26 12 46 27 46 12 0 13 -3 4 -14z m-53 -55 c10 -6 8 -10 -9
-14 -26 -7 -34 -3 -24 12 7 13 15 14 33 2z m1951 -25 c-3 -3 -15 -3 -26 0 -17
5 -19 9 -10 19 10 11 14 11 26 -1 8 -7 13 -16 10 -18z m-1852 -58 c-3 -8 -6
-5 -6 6 -1 11 2 17 5 13 3 -3 4 -12 1 -19z m1853 -23 c0 -8 -4 -15 -10 -15 -5
0 -10 7 -10 15 0 8 5 15 10 15 6 0 10 -7 10 -15z m-1590 -35 c0 -12 -50 -33
-58 -25 -3 3 0 5 6 5 7 0 12 7 12 15 0 8 9 15 20 15 11 0 20 -5 20 -10z m70
-20 c0 -5 -7 -10 -16 -10 -8 0 -12 5 -9 10 3 6 10 10 16 10 5 0 9 -4 9 -10z
m1516 -27 c-10 -10 -19 5 -10 18 6 11 8 11 12 0 2 -7 1 -15 -2 -18z m-1736 7
c0 -5 -2 -10 -4 -10 -3 0 -8 5 -11 10 -3 6 -1 10 4 10 6 0 11 -4 11 -10z m80
-10 c0 -5 -4 -10 -10 -10 -5 0 -10 5 -10 10 0 6 5 10 10 10 6 0 10 -4 10 -10z
m300 -20 c0 -5 -5 -10 -11 -10 -5 0 -7 5 -4 10 3 6 8 10 11 10 2 0 4 -4 4 -10z
m-513 -6 c-3 -3 -12 -4 -19 -1 -8 3 -5 6 6 6 11 1 17 -2 13 -5z m2397 -89 c-4
-21 -2 -41 5 -49 18 -21 2 -46 -29 -46 -42 0 -44 14 -16 75 29 63 50 74 40 20z"/>
<path d="M6250 8130 c0 -5 7 -10 15 -10 8 0 15 5 15 10 0 6 -7 10 -15 10 -8 0
-15 -4 -15 -10z"/>
<path d="M6230 8100 c0 -5 5 -10 10 -10 6 0 10 5 10 10 0 6 -4 10 -10 10 -5 0
-10 -4 -10 -10z"/>
<path d="M6705 7360 c3 -5 8 -10 11 -10 2 0 4 5 4 10 0 6 -5 10 -11 10 -5 0
-7 -4 -4 -10z"/>
<path d="M6750 6558 c-14 -5 -47 -11 -75 -13 -104 -8 -191 -21 -210 -34 -5 -3
17 -9 50 -12 65 -6 77 -3 55 12 -12 9 -10 9 5 3 11 -4 36 -9 55 -11 114 -12
191 -28 258 -55 87 -35 98 -42 104 -66 4 -15 -4 -17 -57 -18 -35 -1 -71 -6
-81 -12 -17 -10 -16 -12 11 -22 17 -6 37 -13 45 -17 8 -3 -32 -12 -90 -19
-190 -23 -372 -111 -309 -149 5 -4 31 9 56 29 26 20 52 36 58 36 15 0 38 -26
59 -68 24 -46 70 -72 131 -72 76 0 113 35 129 122 8 47 19 53 50 33 33 -22
148 -46 161 -34 6 6 5 16 -3 29 -17 28 -16 30 17 30 32 0 44 11 35 32 -7 18
-95 58 -127 58 -14 0 -31 8 -36 18 -6 10 -11 12 -11 4 0 -18 -20 -4 -20 14 0
13 8 14 43 8 75 -13 162 -10 165 7 3 17 -47 49 -78 49 -11 0 -34 14 -49 31
-23 25 -38 31 -78 34 -53 4 -151 27 -204 49 -24 10 -41 11 -59 4z m50 -318 c0
-22 -3 -23 -37 -14 -27 7 -30 21 -5 27 34 9 42 7 42 -13z"/>
<path d="M6484 6281 c-35 -21 -51 -41 -35 -41 6 0 11 4 11 9 0 5 14 14 30 21
30 12 49 30 33 30 -4 0 -22 -9 -39 -19z"/>
<path d="M8101 5348 c-12 -35 -62 -69 -70 -47 -2 6 -11 19 -21 29 -29 29 -71
12 -159 -64 -78 -69 -81 -70 -130 -67 -29 1 -51 -2 -51 -8 0 -14 29 -41 46
-41 8 0 22 -16 31 -35 11 -22 27 -38 43 -42 14 -4 49 -17 78 -30 34 -15 82
-26 130 -29 58 -4 91 -13 133 -35 31 -16 63 -29 71 -29 20 0 58 -54 58 -83 0
-23 -3 -24 -112 -32 -62 -4 -133 -7 -158 -6 -48 2 -120 -17 -120 -31 0 -4 -8
-8 -17 -8 -15 0 -16 -2 -3 -10 12 -8 11 -10 -8 -10 -12 0 -25 7 -28 15 -4 8
-12 15 -19 15 -7 0 -18 -7 -25 -15 -7 -8 -16 -15 -21 -15 -5 0 -6 7 -3 15 4 8
1 15 -5 15 -6 0 -11 -7 -11 -15 0 -15 -5 -16 -65 -19 -16 0 -30 -5 -30 -11 0
-6 128 -10 363 -11 263 0 366 -4 374 -12 7 -7 24 -12 39 -12 15 0 32 -7 39
-15 7 -8 19 -15 27 -15 7 0 25 -7 38 -16 l25 -16 0 43 c0 39 4 46 31 62 30 17
31 19 24 70 -6 46 -14 59 -67 113 -48 48 -72 65 -117 78 -31 10 -70 26 -87 36
-18 10 -47 20 -65 23 -83 12 -130 30 -149 57 -26 36 -25 43 5 88 20 29 25 49
25 94 0 67 -21 80 -39 26z"/>
<path d="M7374 5239 c-14 -23 14 -31 35 -10 l21 21 -24 0 c-14 0 -28 -5 -32
-11z"/>
<path d="M7473 5103 c-20 -8 -15 -23 7 -23 11 0 20 7 20 15 0 15 -6 17 -27 8z"/>
<path d="M7593 5083 c-13 -2 -23 -9 -23 -14 0 -15 53 -7 58 9 2 6 0 11 -5 11
-4 -1 -18 -4 -30 -6z"/>
<path d="M7125 5000 c-3 -5 -1 -10 4 -10 6 0 11 5 11 10 0 6 -2 10 -4 10 -3 0
-8 -4 -11 -10z"/>
<path d="M7115 4960 c-3 -5 1 -10 10 -10 9 0 13 5 10 10 -3 6 -8 10 -10 10 -2
0 -7 -4 -10 -10z"/>
<path d="M7006 4869 c-8 -42 -8 -49 4 -49 6 0 10 9 10 19 0 11 5 23 10 26 15
9 12 35 -4 35 -7 0 -16 -14 -20 -31z"/>
<path d="M7047 4739 c-11 -6 -29 -9 -42 -7 -17 4 -26 -1 -33 -18 -6 -12 -27
-28 -46 -35 -41 -15 -46 -38 -15 -58 20 -12 24 -10 46 18 14 17 34 31 46 31
12 1 49 14 82 30 50 23 55 28 33 29 -15 1 -30 6 -33 11 -8 12 -15 12 -38 -1z"/>
<path d="M7328 4743 c6 -2 18 -2 25 0 6 3 1 5 -13 5 -14 0 -19 -2 -12 -5z"/>
<path d="M7210 4730 c-12 -8 -9 -10 13 -10 15 0 27 5 27 10 0 13 -20 13 -40 0z"/>
<path d="M8045 4508 c-16 -6 -115 -12 -220 -14 -216 -4 -312 -11 -355 -26 -31
-10 -39 -31 -18 -44 8 -5 6 -11 -6 -19 -15 -11 -14 -13 6 -17 13 -2 81 2 153
9 95 10 138 10 162 2 69 -22 313 28 313 65 0 8 9 18 20 21 11 3 20 13 20 21 0
16 -31 17 -75 2z"/>
<path d="M7838 1588 c9 -9 15 -9 24 0 9 9 7 12 -12 12 -19 0 -21 -3 -12 -12z"/>
<path d="M7715 1530 c-3 -5 -1 -10 4 -10 6 0 11 5 11 10 0 6 -2 10 -4 10 -3 0
-8 -4 -11 -10z"/>
<path d="M7767 1359 c7 -7 15 -10 18 -7 3 3 -2 9 -12 12 -14 6 -15 5 -6 -5z"/>
<path d="M7800 1320 c0 -5 5 -10 10 -10 6 0 10 5 10 10 0 6 -4 10 -10 10 -5 0
-10 -4 -10 -10z"/>
<path d="M7818 1283 c6 -2 18 -2 25 0 6 3 1 5 -13 5 -14 0 -19 -2 -12 -5z"/>
<path d="M5520 1530 c0 -5 5 -10 11 -10 5 0 7 5 4 10 -3 6 -8 10 -11 10 -2 0
-4 -4 -4 -10z"/>
<path d="M8893 9535 c0 -38 2 -53 4 -32 2 20 2 52 0 70 -2 17 -4 1 -4 -38z"/>
<path d="M6250 8708 c-19 -13 -35 -29 -38 -35 -6 -21 32 -15 51 7 9 11 23 20
31 20 8 0 16 7 20 15 8 23 -26 19 -64 -7z"/>
<path d="M3239 2789 c-10 -6 -7 -9 14 -9 29 0 35 5 14 13 -8 3 -20 1 -28 -4z"/>
<path d="M3004 2775 c-10 -8 -14 -14 -9 -14 6 0 19 6 29 14 11 8 15 15 10 15
-6 0 -19 -7 -30 -15z"/>
<path d="M2288 2483 c7 -3 16 -2 19 1 4 3 -2 6 -13 5 -11 0 -14 -3 -6 -6z"/>
<path d="M2095 2380 c-3 -5 1 -10 10 -10 9 0 13 5 10 10 -3 6 -8 10 -10 10 -2
0 -7 -4 -10 -10z"/>
<path d="M0 2069 c0 -5 5 -7 10 -4 5 3 10 8 10 11 0 2 -4 4 -10 4 -5 0 -10 -5
-10 -11z"/>
</g>
</svg>
