<svg xmlns="http://www.w3.org/2000/svg" version="1.1" xmlns:xlink="http://www.w3.org/1999/xlink" xmlns:svgjs="http://svgjs.dev/svgjs" width="1500" height="310" viewBox="0 0 1500 310"><g transform="matrix(1,0,0,1,-0.9090909090909918,-0.845033020330419)"><svg viewBox="0 0 396 82" data-background-color="#f8f8f8" preserveAspectRatio="xMidYMid meet" height="310" width="1500" xmlns="http://www.w3.org/2000/svg" xmlns:xlink="http://www.w3.org/1999/xlink"><g id="tight-bounds" transform="matrix(1,0,0,1,0.2400000000000091,0.2235248634422362)"><svg viewBox="0 0 395.52 81.55295027311554" height="81.55295027311554" width="395.52"><g><svg viewBox="0 0 514.0550075588962 105.99388771515144" height="81.55295027311554" width="395.52"><g transform="matrix(1,0,0,1,0,14.648938171920356)"><svg viewBox="0 0 395.5199999999999 76.69601137131073" height="76.69601137131073" width="395.5199999999999"><g id="textblocktransform"><svg viewBox="0 0 395.5199999999999 76.69601137131073" height="76.69601137131073" width="395.5199999999999" id="textblock"><g><svg viewBox="0 0 395.5199999999999 53.123230839834775" height="53.123230839834775" width="395.5199999999999"><g transform="matrix(1,0,0,1,0,0)"><svg width="395.5199999999999" viewBox="0.65 -32.5 326.81 43.9" height="53.123230839834775" data-palette-color="#61777f"><path d="M6.2-31.1L10.15-31.1Q9.8-29.85 9.8-21.4L9.8-21.4Q9.8-3 9.3-1.65L9.3-1.65Q8.45 0.6 4.9 0.6L4.9 0.6Q4.15 0.6 3.58 0.48 3 0.35 2.53 0.2 2.05 0.05 1.6-0.03 1.15-0.1 0.7 0L0.7 0Q0.6-3.65 0.7-3.6L0.7-3.6 2.5-3.55Q2.55-2.9 3.4-2.45L3.4-2.45Q4.05-2.1 4.8-2.1L4.8-2.1Q6.25-2.1 6.35-3.4L6.35-3.4Q6.45-4.6 6.5-9.08 6.55-13.55 6.55-21.45L6.55-21.45Q6.55-29.85 6.2-31.1L6.2-31.1ZM25.35-11.9L25.35-14.4Q25.3-17.75 21.65-17.55L21.65-17.55Q20.75-17.5 19.72-17.18 18.7-16.85 17.77-16.35 16.85-15.85 16.02-15.2 15.2-14.55 14.7-13.85L14.7-13.85 14.7-16.85Q17.3-19.9 21.75-20L21.75-20Q24.6-20.05 26.35-18.7L26.35-18.7Q28.4-17.1 28.4-13.95L28.4-13.95 28.4-3.65Q28.4-2.5 29.25-2.5L29.25-2.5Q29.55-2.5 31.6-4L31.6-4 31.6-1.3Q29.95 0.45 28.7 0.45L28.7 0.45Q26.1 0.45 25.5-2L25.5-2Q23.2 0.4 19.25 0.5L19.25 0.5Q18.05 0.5 17.05 0.08 16.05-0.35 15.3-1.1 14.55-1.85 14.15-2.85 13.75-3.85 13.75-5L13.75-5Q13.75-7.5 15.45-9.15L15.45-9.15Q17.05-10.65 19.7-11.05L19.7-11.05Q20.7-11.15 22.1-11.38 23.5-11.6 25.35-11.9L25.35-11.9ZM25.5-4.5L25.5-4.5 25.5-9.3Q24.75-9.2 23.47-9.03 22.2-8.85 20.45-8.6L20.45-8.6Q18.8-8.35 17.72-7.45 16.65-6.55 16.65-5.4L16.65-5.4Q16.65-4 17.52-3.08 18.4-2.15 19.8-2.15L19.8-2.15Q20.85-2.15 22.75-2.9L22.75-2.9Q24.7-3.75 25.5-4.5ZM53.9-19.3L53.9-19.3 47.85-4.2Q45.5 1.6 44.4 3.75L44.4 3.75Q41.35 9.8 38.75 10.6L38.75 10.6Q37.2 11.1 35.45 11.1L35.45 11.1Q32.25 11.1 30.55 9.6L30.55 9.6 31.55 7.15Q33 8.55 35.4 8.55L35.4 8.55Q36.15 8.55 37.05 8.3L37.05 8.3Q38.9 7.8 40.8 4.85L40.8 4.85Q42.4 2.5 43.3-0.2L43.3-0.2Q41.05-5.05 38.9-9.8 36.75-14.55 34.5-19.35L34.5-19.35 38.15-19.35Q39.1-17.25 40.75-13.38 42.4-9.5 44.8-3.8L44.8-3.8Q46.55-8.05 47.92-11.9 49.3-15.75 50.3-19.3L50.3-19.3Q53.8-19.35 53.9-19.3ZM88.94 11.4L88.94 11.4 84.14 11.4Q79.59 4.45 78.14 1.1L78.14 1.1Q75.69-4.3 75.69-10.2L75.69-10.2Q75.69-16.4 78.04-22.1L78.04-22.1Q79.64-25.75 83.94-32.5L83.94-32.5Q86.24-32.5 87.47-32.48 88.69-32.45 88.94-32.4L88.94-32.4Q87.74-30.75 86.49-29.08 85.24-27.4 84.14-25.75 83.04-24.1 82.14-22.45 81.24-20.8 80.74-19.25L80.74-19.25Q80.09-17.35 79.74-15.15 79.39-12.95 79.34-10.4L79.34-10.4Q79.19-4.9 82.14 0.9L82.14 0.9Q82.99 2.5 84.67 5.13 86.34 7.75 88.94 11.4ZM95.64-31.1L99.59-31.1Q99.24-29.85 99.24-21.4L99.24-21.4Q99.24-3 98.74-1.65L98.74-1.65Q97.89 0.6 94.34 0.6L94.34 0.6Q93.59 0.6 93.01 0.48 92.44 0.35 91.96 0.2 91.49 0.05 91.04-0.03 90.59-0.1 90.14 0L90.14 0Q90.04-3.65 90.14-3.6L90.14-3.6 91.94-3.55Q91.99-2.9 92.84-2.45L92.84-2.45Q93.49-2.1 94.24-2.1L94.24-2.1Q95.69-2.1 95.79-3.4L95.79-3.4Q95.89-4.6 95.94-9.08 95.99-13.55 95.99-21.45L95.99-21.45Q95.99-29.85 95.64-31.1L95.64-31.1ZM128.79 0L128.79 0 123.34 0Q122.64-2.15 121.04-4.1L121.04-4.1Q120.34-4.95 119.04-6.3 117.74-7.65 115.84-9.5L115.84-9.5Q111.29-13.9 108.39-15.9L108.39-15.9 114.54-22.1Q116.84-24.4 118.14-25.75 119.44-27.1 119.84-27.5L119.84-27.5Q121.59-29.55 121.69-31.15L121.69-31.15 127.94-31.15Q126.34-29.95 123.19-26.65L123.19-26.65Q121.59-24.95 119.94-23.3 118.29-21.65 116.69-20L116.69-20Q116.04-19.35 115.11-18.45 114.19-17.55 113.04-16.4L113.04-16.4Q116.24-13.75 118.29-11.9L118.29-11.9Q125.59-5.05 128.79 0ZM104.44-31.15L108.89-31.15Q108.29-28.8 108.29-15.7L108.29-15.7 108.29-6.55Q108.34-4.15 108.46-2.55 108.59-0.95 108.84 0L108.84 0 104.44 0Q104.99-1.9 105.04-6.4L105.04-6.4Q105.04-15.65 105.04-20.75 105.04-25.85 104.99-27L104.99-27Q104.94-28.15 104.81-29.18 104.69-30.2 104.44-31.15L104.44-31.15ZM145.03-10.9L145.03-10.9Q145.03-4.6 142.63 0.95L142.63 0.95Q141.13 4.6 136.73 11.4L136.73 11.4Q132.28 11.4 131.78 11.3L131.78 11.3Q132.98 9.65 134.21 7.98 135.43 6.3 136.53 4.63 137.63 2.95 138.51 1.33 139.38-0.3 139.93-1.85L139.93-1.85Q140.58-3.75 140.93-5.95 141.28-8.15 141.33-10.7L141.33-10.7Q141.48-16.2 138.53-22L138.53-22Q136.88-25.2 131.78-32.5L131.78-32.5 136.53-32.5Q138.83-29 140.33-26.43 141.83-23.85 142.58-22.2L142.58-22.2Q145.03-16.8 145.03-10.9ZM193.03 0L193.03 0 187.58 0Q186.88-2.15 185.28-4.1L185.28-4.1Q184.58-4.95 183.28-6.3 181.98-7.65 180.08-9.5L180.08-9.5Q175.53-13.9 172.63-15.9L172.63-15.9 178.78-22.1Q181.08-24.4 182.38-25.75 183.68-27.1 184.08-27.5L184.08-27.5Q185.83-29.55 185.93-31.15L185.93-31.15 192.18-31.15Q190.58-29.95 187.43-26.65L187.43-26.65Q185.83-24.95 184.18-23.3 182.53-21.65 180.93-20L180.93-20Q180.28-19.35 179.35-18.45 178.43-17.55 177.28-16.4L177.28-16.4Q180.48-13.75 182.53-11.9L182.53-11.9Q189.83-5.05 193.03 0ZM168.68-31.15L173.13-31.15Q172.53-28.8 172.53-15.7L172.53-15.7 172.53-6.55Q172.58-4.15 172.7-2.55 172.83-0.95 173.08 0L173.08 0 168.68 0Q169.23-1.9 169.28-6.4L169.28-6.4Q169.28-15.65 169.28-20.75 169.28-25.85 169.23-27L169.23-27Q169.18-28.15 169.05-29.18 168.93-30.2 168.68-31.15L168.68-31.15ZM216.83-9.7L216.83-9.7Q216.83-5.15 213.93-2.4L213.93-2.4Q210.98 0.4 206.78 0.4L206.78 0.4Q202.18 0.4 199.28-2.6L199.28-2.6Q196.48-5.45 196.58-9.8L196.58-9.8Q196.63-14.05 199.43-16.85L199.43-16.85Q202.28-19.7 206.78-19.7L206.78-19.7Q211.33-19.7 214.08-16.95L214.08-16.95Q216.83-14.2 216.83-9.7ZM213.78-9.7L213.78-9.7Q213.78-11.25 213.3-12.6 212.83-13.95 211.9-14.95 210.98-15.95 209.7-16.5 208.43-17.05 206.88-17.05L206.88-17.05Q203.73-17.05 201.63-14.95L201.63-14.95Q199.58-12.8 199.58-9.7L199.58-9.7Q199.58-6.65 201.68-4.5L201.68-4.5Q203.83-2.35 206.88-2.35L206.88-2.35Q209.88-2.35 211.8-4.35 213.73-6.35 213.78-9.7ZM231.32-19.45L231.32-19.45 231.32-17.3 226.42-17.3 226.22-8.8Q226.17-6.2 226.15-5.38 226.12-4.55 226.12-5.4L226.12-5.4Q226.12-2.65 226.72-2.65L226.72-2.65Q227.02-2.65 227.6-3.08 228.17-3.5 228.32-3.55L228.32-3.55Q228.42-3.4 228.62-2.88 228.82-2.35 229.17-1.45L229.17-1.45Q226.22 0.5 224.22 0.45L224.22 0.45Q223.07 0.35 223.07-3.9L223.07-3.9Q223.07-4.25 223.22-8.7L223.22-8.7Q223.27-10.25 223.37-17.25L223.37-17.25 220.47-17.25Q220.52-17.3 220.52-18.35L220.52-18.35 220.52-19.4 223.42-19.4 223.42-24.6 226.42-25.9 226.42-19.4Q231.27-19.4 231.32-19.45ZM245.97-11.9L245.97-14.4Q245.92-17.75 242.27-17.55L242.27-17.55Q241.37-17.5 240.35-17.18 239.32-16.85 238.4-16.35 237.47-15.85 236.65-15.2 235.82-14.55 235.32-13.85L235.32-13.85 235.32-16.85Q237.92-19.9 242.37-20L242.37-20Q245.22-20.05 246.97-18.7L246.97-18.7Q249.02-17.1 249.02-13.95L249.02-13.95 249.02-3.65Q249.02-2.5 249.87-2.5L249.87-2.5Q250.17-2.5 252.22-4L252.22-4 252.22-1.3Q250.57 0.45 249.32 0.45L249.32 0.45Q246.72 0.45 246.12-2L246.12-2Q243.82 0.4 239.87 0.5L239.87 0.5Q238.67 0.5 237.67 0.08 236.67-0.35 235.92-1.1 235.17-1.85 234.77-2.85 234.37-3.85 234.37-5L234.37-5Q234.37-7.5 236.07-9.15L236.07-9.15Q237.67-10.65 240.32-11.05L240.32-11.05Q241.32-11.15 242.72-11.38 244.12-11.6 245.97-11.9L245.97-11.9ZM246.12-4.5L246.12-4.5 246.12-9.3Q245.37-9.2 244.1-9.03 242.82-8.85 241.07-8.6L241.07-8.6Q239.42-8.35 238.35-7.45 237.27-6.55 237.27-5.4L237.27-5.4Q237.27-4 238.15-3.08 239.02-2.15 240.42-2.15L240.42-2.15Q241.47-2.15 243.37-2.9L243.37-2.9Q245.32-3.75 246.12-4.5ZM270.87-30L274.27-30Q274.17-28.3 274.09-25.68 274.02-23.05 274.02-19.4L274.02-19.4 274.02-17.45Q274.02-16.35 274.02-14.85 274.02-13.35 274.07-11.35L274.07-11.35Q274.12-9 274.14-7.23 274.17-5.45 274.17-4.2L274.17-4.2 274.17-1.3Q274.22-0.6 274.22-0.25 274.22 0.1 274.22 0L274.22 0 270.97 0 271.07-2.1Q269.02 0.4 265.57 0.4L265.57 0.4Q260.97 0.4 258.07-2.6L258.07-2.6Q255.27-5.45 255.37-9.8L255.37-9.8Q255.42-14.05 258.22-16.85L258.22-16.85Q261.07-19.7 265.57-19.7L265.57-19.7Q269.67-19.7 271.12-17.35L271.12-17.35 271.17-19.35Q271.37-25.85 270.87-30L270.87-30ZM265.67-17.05L265.67-17.05Q262.52-17.05 260.42-14.95L260.42-14.95Q258.37-12.8 258.37-9.7L258.37-9.7Q258.37-6.65 260.47-4.5L260.47-4.5Q262.62-2.35 265.67-2.35L265.67-2.35Q269.12-2.35 271.07-4.95L271.07-4.95Q271.12-7.3 271.14-9.63 271.17-11.95 271.17-14.35L271.17-14.35Q269.12-17.05 265.67-17.05ZM284.07-25.45L284.07-25.45Q284.07-24.55 283.32-23.83 282.57-23.1 281.62-23.1L281.62-23.1Q280.72-23.1 279.99-23.8 279.27-24.5 279.27-25.45L279.27-25.45Q279.27-26.4 279.99-27.13 280.72-27.85 281.62-27.85L281.62-27.85Q282.57-27.85 283.32-27.13 284.07-26.4 284.07-25.45ZM283.17 0.05L283.17 0.05 279.87 0.05Q280.32-10.2 279.87-19.35L279.87-19.35 283.17-19.35Q282.82-9.85 283.17 0.05ZM306.81-19.3L306.81-19.3 300.76-4.2Q298.41 1.6 297.31 3.75L297.31 3.75Q294.26 9.8 291.66 10.6L291.66 10.6Q290.11 11.1 288.36 11.1L288.36 11.1Q285.16 11.1 283.46 9.6L283.46 9.6 284.46 7.15Q285.91 8.55 288.31 8.55L288.31 8.55Q289.06 8.55 289.96 8.3L289.96 8.3Q291.81 7.8 293.71 4.85L293.71 4.85Q295.31 2.5 296.21-0.2L296.21-0.2Q293.96-5.05 291.81-9.8 289.66-14.55 287.41-19.35L287.41-19.35 291.06-19.35Q292.01-17.25 293.66-13.38 295.31-9.5 297.71-3.8L297.71-3.8Q299.46-8.05 300.84-11.9 302.21-15.75 303.21-19.3L303.21-19.3Q306.71-19.35 306.81-19.3ZM321.21-11.9L321.21-14.4Q321.16-17.75 317.51-17.55L317.51-17.55Q316.61-17.5 315.59-17.18 314.56-16.85 313.64-16.35 312.71-15.85 311.89-15.2 311.06-14.55 310.56-13.85L310.56-13.85 310.56-16.85Q313.16-19.9 317.61-20L317.61-20Q320.46-20.05 322.21-18.7L322.21-18.7Q324.26-17.1 324.26-13.95L324.26-13.95 324.26-3.65Q324.26-2.5 325.11-2.5L325.11-2.5Q325.41-2.5 327.46-4L327.46-4 327.46-1.3Q325.81 0.45 324.56 0.45L324.56 0.45Q321.96 0.45 321.36-2L321.36-2Q319.06 0.4 315.11 0.5L315.11 0.5Q313.91 0.5 312.91 0.08 311.91-0.35 311.16-1.1 310.41-1.85 310.01-2.85 309.61-3.85 309.61-5L309.61-5Q309.61-7.5 311.31-9.15L311.31-9.15Q312.91-10.65 315.56-11.05L315.56-11.05Q316.56-11.15 317.96-11.38 319.36-11.6 321.21-11.9L321.21-11.9ZM321.36-4.5L321.36-4.5 321.36-9.3Q320.61-9.2 319.34-9.03 318.06-8.85 316.31-8.6L316.31-8.6Q314.66-8.35 313.59-7.45 312.51-6.55 312.51-5.4L312.51-5.4Q312.51-4 313.39-3.08 314.26-2.15 315.66-2.15L315.66-2.15Q316.71-2.15 318.61-2.9L318.61-2.9Q320.56-3.75 321.36-4.5Z" opacity="1" transform="matrix(1,0,0,1,0,0)" fill="#61777f" class="wordmark-text-0" data-fill-palette-color="primary" id="text-0"></path></svg></g></svg></g><g transform="matrix(1,0,0,1,19.77600000000001,65.66435068357961)"><svg viewBox="0 0 375.7439999999999 11.031660687731117" height="11.031660687731117" width="375.7439999999999"><g transform="matrix(1,0,0,1,0,0)"><svg width="375.7439999999999" viewBox="1.46 -42.87 1855.08 54.47" height="11.031660687731117" data-palette-color="#000000"><path d="M7.13 0L7.13-28.81 1.46-35.01 19.75-35.01 19.75-6.2 25.42 0 7.13 0ZM27.85 0L34.47-5.96 34.47-20.83 28.07-26.29 46.12-27.03 46.12-21.73Q47.87-24.73 50.74-26.35 53.61-27.98 57.32-27.98L57.32-27.98Q60.15-27.98 62.36-27.11 64.57-26.25 66.07-24.52 67.58-22.8 68.36-20.23 69.14-17.65 69.14-14.26L69.14-14.26 69.14-5.96 75.75 0 53 0 57.49-5.96 57.49-13.75Q57.49-15.31 57.2-16.7 56.91-18.09 56.28-19.14 55.66-20.19 54.69-20.8 53.71-21.41 52.34-21.41L52.34-21.41Q50.97-21.41 49.83-20.81 48.68-20.21 47.85-19.08 47.02-17.94 46.57-16.3 46.12-14.65 46.12-12.52L46.12-12.52 46.12-5.96 50.61 0 27.85 0ZM91.89 0L81.34-20.8 74.46-27.03 96.72-27.03 94.01-23.17 100.58-6.15 105.68-22.17 101.87-27.03 121.14-27.03 114.81-21.97 105.78 0 91.89 0ZM122.72-13.11L122.72-13.11Q122.72-16.09 123.59-18.36 124.46-20.63 125.93-22.28 127.41-23.93 129.37-25.02 131.34-26.12 133.56-26.78 135.78-27.44 138.14-27.71 140.5-27.98 142.72-27.98L142.72-27.98Q146.26-27.98 149.32-27.2 152.39-26.42 154.63-24.68 156.88-22.95 158.16-20.13 159.44-17.31 159.44-13.26L159.44-13.26 135.59-13.26Q135.69-10.72 136.45-9.07 137.22-7.42 138.44-6.46 139.67-5.49 141.23-5.1 142.79-4.71 144.45-4.71L144.45-4.71Q145.94-4.71 147.67-4.88 149.41-5.05 151.14-5.53 152.87-6.01 154.46-6.84 156.05-7.67 157.22-9.01L157.22-9.01 159.71-7.06Q159.1-5.57 158-4.39 156.9-3.22 155.49-2.33 154.07-1.44 152.42-0.82 150.77-0.2 149.04 0.2 147.31 0.59 145.57 0.77 143.84 0.95 142.25 0.95L142.25 0.95Q137.79 0.95 134.18 0.02 130.58-0.9 128.03-2.7 125.48-4.49 124.1-7.12 122.72-9.74 122.72-13.11ZM135.78-17.07L147.62-17.07Q147.62-18.87 147.29-20.1 146.97-21.34 146.31-22.09 145.65-22.85 144.66-23.18 143.67-23.51 142.35-23.51L142.35-23.51Q139.57-23.51 137.93-21.83 136.3-20.14 135.78-17.07L135.78-17.07ZM167.67-10.67L167.67-22.05 163.47-22.05 163.47-25.83Q165.2-25.83 166.71-26.33 168.23-26.83 169.51-27.69 170.79-28.54 171.8-29.68 172.82-30.81 173.53-32.07 174.23-33.33 174.61-34.63 174.99-35.94 174.99-37.16L174.99-37.16 179.8-37.16 179.8-27.03 191.79-27.03 191.79-22.05 179.8-22.05 179.8-11.08Q179.8-8.81 180.35-7.47 180.9-6.13 181.76-5.44 182.63-4.76 183.67-4.57 184.71-4.37 185.68-4.37L185.68-4.37Q188.17-4.37 189.63-5.8 191.08-7.23 191.08-10.18L191.08-10.18Q191.08-10.4 191.08-10.64 191.08-10.89 191.03-11.16L191.03-11.16 195.23-9.91Q195.3-9.25 195.3-8.67L195.3-8.67Q195.3-6.88 194.74-5.47 194.18-4.05 193.2-2.99 192.23-1.93 190.9-1.17 189.57-0.42 188.05 0.05 186.54 0.51 184.9 0.73 183.27 0.95 181.66 0.95L181.66 0.95Q178.46 0.95 175.87 0.32 173.28-0.32 171.46-1.71 169.64-3.1 168.65-5.31 167.67-7.52 167.67-10.67L167.67-10.67ZM198.6-13.11L198.6-13.11Q198.6-16.09 199.46-18.36 200.33-20.63 201.81-22.28 203.28-23.93 205.25-25.02 207.21-26.12 209.44-26.78 211.66-27.44 214.01-27.71 216.37-27.98 218.59-27.98L218.59-27.98Q222.13-27.98 225.2-27.2 228.26-26.42 230.51-24.68 232.75-22.95 234.03-20.13 235.31-17.31 235.31-13.26L235.31-13.26 211.46-13.26Q211.56-10.72 212.33-9.07 213.1-7.42 214.32-6.46 215.54-5.49 217.1-5.1 218.66-4.71 220.32-4.71L220.32-4.71Q221.81-4.71 223.55-4.88 225.28-5.05 227.01-5.53 228.75-6.01 230.33-6.84 231.92-7.67 233.09-9.01L233.09-9.01 235.58-7.06Q234.97-5.57 233.87-4.39 232.78-3.22 231.36-2.33 229.94-1.44 228.3-0.82 226.65-0.2 224.91 0.2 223.18 0.59 221.45 0.77 219.71 0.95 218.13 0.95L218.13 0.95Q213.66 0.95 210.06 0.02 206.46-0.9 203.91-2.7 201.35-4.49 199.98-7.12 198.6-9.74 198.6-13.11ZM211.66-17.07L223.5-17.07Q223.5-18.87 223.17-20.1 222.84-21.34 222.18-22.09 221.52-22.85 220.53-23.18 219.54-23.51 218.22-23.51L218.22-23.51Q215.44-23.51 213.81-21.83 212.17-20.14 211.66-17.07L211.66-17.07ZM239.1 0L245.47-5.96 245.47-20.83 239.07-26.29 257.11-27.03 257.11-21.85Q258.07-23.36 259.3-24.51 260.53-25.66 261.94-26.43 263.34-27.2 264.87-27.59 266.39-27.98 267.93-27.98L267.93-27.98Q269.96-27.98 271.43-27.29 272.91-26.61 273.86-25.38 274.81-24.15 275.28-22.46 275.74-20.78 275.74-18.8L275.74-18.8Q275.74-18.16 275.69-17.5 275.64-16.85 275.5-16.21L275.5-16.21 266.59-15.41Q266.68-15.8 266.7-16.15 266.71-16.5 266.71-16.85L266.71-16.85Q266.71-17.85 266.48-18.68 266.24-19.51 265.79-20.1 265.34-20.7 264.65-21.03 263.95-21.36 263.02-21.36L263.02-21.36Q262.05-21.36 261.24-20.97 260.43-20.58 259.78-19.92 259.12-19.26 258.62-18.4 258.11-17.53 257.79-16.59 257.46-15.65 257.28-14.7 257.11-13.75 257.11-12.92L257.11-12.92 257.11-6.2 265.61 0 239.1 0ZM278.23-6.3L278.23-6.3Q278.23-8.25 279.04-9.68 279.84-11.11 281.21-12.12 282.58-13.13 284.41-13.77 286.24-14.4 288.29-14.76 290.34-15.11 292.5-15.25 294.66-15.38 296.71-15.38L296.71-15.38Q297.86-15.38 299.14-15.34 300.42-15.31 301.72-15.26L301.72-15.26Q301.67-17.02 301.41-18.4 301.15-19.78 300.56-20.72 299.96-21.66 298.9-22.16 297.83-22.66 296.17-22.66L296.17-22.66Q295.1-22.66 294.05-22.39 293-22.12 292.15-21.53 291.29-20.95 290.69-20.03 290.09-19.12 289.92-17.8L289.92-17.8 280.13-19.14Q280.13-20.8 280.81-22.11 281.48-23.41 282.65-24.4 283.82-25.39 285.42-26.07 287.02-26.76 288.86-27.17 290.71-27.59 292.72-27.78 294.73-27.98 296.74-27.98L296.74-27.98Q299.15-27.98 301.36-27.77 303.57-27.56 305.48-27.03 307.38-26.49 308.93-25.59 310.48-24.68 311.58-23.29 312.68-21.9 313.28-19.97 313.87-18.04 313.87-15.48L313.87-15.48 313.87-6.88Q313.87-4.93 314.84-4.15 315.8-3.37 317.46-3.37L317.46-3.37 317.46-0.56Q317.24-0.34 316.72-0.09 316.19 0.17 315.35 0.4 314.51 0.63 313.36 0.79 312.21 0.95 310.72 0.95L310.72 0.95Q308.92 0.95 307.48 0.77 306.04 0.59 304.98 0.13 303.91-0.32 303.21-1.1 302.5-1.88 302.13-3.08L302.13-3.08Q300.91-2 299.37-1.25 297.83-0.49 296.11 0 294.39 0.49 292.57 0.72 290.75 0.95 289 0.95L289 0.95Q287.82 0.95 286.58 0.83 285.33 0.71 284.14 0.4 282.94 0.1 281.87-0.43 280.79-0.95 279.99-1.76 279.18-2.56 278.71-3.69 278.23-4.81 278.23-6.3ZM290.85-7.37L290.85-7.37Q290.85-6.71 291.19-6.18 291.54-5.64 292.12-5.27 292.71-4.91 293.49-4.71 294.27-4.52 295.15-4.52L295.15-4.52Q296.05-4.52 297.15-4.72 298.25-4.93 299.24-5.42 300.23-5.91 300.93-6.7 301.64-7.5 301.74-8.64L301.74-8.64 301.74-11.13Q301.4-11.16 301.09-11.16 300.79-11.16 300.52-11.16L300.52-11.16Q297.91-11.16 296.08-10.9 294.25-10.64 293.09-10.16 291.93-9.67 291.39-8.96 290.85-8.25 290.85-7.37ZM324.66-10.67L324.66-22.05 320.46-22.05 320.46-25.83Q322.2-25.83 323.71-26.33 325.22-26.83 326.51-27.69 327.79-28.54 328.8-29.68 329.81-30.81 330.52-32.07 331.23-33.33 331.61-34.63 331.99-35.94 331.99-37.16L331.99-37.16 336.8-37.16 336.8-27.03 348.78-27.03 348.78-22.05 336.8-22.05 336.8-11.08Q336.8-8.81 337.35-7.47 337.9-6.13 338.76-5.44 339.63-4.76 340.67-4.57 341.7-4.37 342.68-4.37L342.68-4.37Q345.17-4.37 346.62-5.8 348.08-7.23 348.08-10.18L348.08-10.18Q348.08-10.4 348.08-10.64 348.08-10.89 348.03-11.16L348.03-11.16 352.23-9.91Q352.3-9.25 352.3-8.67L352.3-8.67Q352.3-6.88 351.74-5.47 351.18-4.05 350.2-2.99 349.22-1.93 347.89-1.17 346.56-0.42 345.05 0.05 343.53 0.51 341.9 0.73 340.26 0.95 338.65 0.95L338.65 0.95Q335.45 0.95 332.87 0.32 330.28-0.32 328.46-1.71 326.64-3.1 325.65-5.31 324.66-7.52 324.66-10.67L324.66-10.67ZM355.59-13.11L355.59-13.11Q355.59-16.09 356.46-18.36 357.33-20.63 358.8-22.28 360.28-23.93 362.25-25.02 364.21-26.12 366.43-26.78 368.65-27.44 371.01-27.71 373.37-27.98 375.59-27.98L375.59-27.98Q379.13-27.98 382.19-27.2 385.26-26.42 387.5-24.68 389.75-22.95 391.03-20.13 392.31-17.31 392.31-13.26L392.31-13.26 368.46-13.26Q368.56-10.72 369.33-9.07 370.09-7.42 371.32-6.46 372.54-5.49 374.1-5.1 375.66-4.71 377.32-4.71L377.32-4.71Q378.81-4.71 380.54-4.88 382.28-5.05 384.01-5.53 385.74-6.01 387.33-6.84 388.92-7.67 390.09-9.01L390.09-9.01 392.58-7.06Q391.97-5.57 390.87-4.39 389.77-3.22 388.36-2.33 386.94-1.44 385.29-0.82 383.64-0.2 381.91 0.2 380.18 0.59 378.44 0.77 376.71 0.95 375.12 0.95L375.12 0.95Q370.66 0.95 367.06 0.02 363.45-0.9 360.9-2.7 358.35-4.49 356.97-7.12 355.59-9.74 355.59-13.11ZM368.65-17.07L380.5-17.07Q380.5-18.87 380.17-20.1 379.84-21.34 379.18-22.09 378.52-22.85 377.53-23.18 376.54-23.51 375.22-23.51L375.22-23.51Q372.44-23.51 370.8-21.83 369.17-20.14 368.65-17.07L368.65-17.07ZM410.93 0L417.55-5.96 417.55-32.47 411.15-37.94 428.95-38.67 428.95-5.96 435.57 0 410.93 0ZM448.8-30.15L448.8-30.15Q447.48-30.15 446.32-30.65 445.16-31.15 444.31-32.01 443.45-32.86 442.95-34.02 442.45-35.18 442.45-36.5L442.45-36.5Q442.45-37.82 442.95-38.98 443.45-40.14 444.31-41 445.16-41.87 446.32-42.37 447.48-42.87 448.8-42.87L448.8-42.87Q450.12-42.87 451.28-42.37 452.44-41.87 453.3-41 454.17-40.14 454.67-38.98 455.17-37.82 455.17-36.5L455.17-36.5Q455.17-35.18 454.67-34.02 454.17-32.86 453.3-32.01 452.44-31.15 451.28-30.65 450.12-30.15 448.8-30.15ZM437.03 0L443.65-5.96 443.65-20.83 437.25-26.29 455.05-27.03 455.05-5.96 461.66 0 437.03 0ZM462.78 0L469.4-5.96 469.4-22.05 463-22.05 463-27.03 469.4-27.03 469.4-30.22Q469.4-33.35 470.71-35.71 472.01-38.06 474.24-39.62 476.46-41.19 479.35-41.97 482.24-42.75 485.44-42.75L485.44-42.75Q486.64-42.75 488.08-42.65 489.52-42.55 490.97-42.27 492.42-41.99 493.78-41.48 495.13-40.97 496.18-40.15 497.23-39.33 497.87-38.16 498.5-36.99 498.5-35.38L498.5-35.38Q498.5-35.18 498.49-34.96 498.48-34.74 498.45-34.55L498.45-34.55 489.49-32.23Q489.54-32.57 489.57-32.89 489.59-33.2 489.59-33.52L489.59-33.52Q489.59-34.47 489.31-35.27 489.03-36.06 488.51-36.65 487.98-37.23 487.21-37.56 486.44-37.89 485.49-37.89L485.49-37.89Q483.98-37.89 483.1-37.15 482.22-36.4 481.75-35.11 481.29-33.81 481.17-32.08 481.05-30.35 481.05-28.34L481.05-28.34 481.05-27.03 490.1-27.03 490.1-22.05 481.05-22.05 481.05-5.96 490.1 0 462.78 0ZM495.55-13.11L495.55-13.11Q495.55-16.09 496.41-18.36 497.28-20.63 498.76-22.28 500.23-23.93 502.2-25.02 504.16-26.12 506.39-26.78 508.61-27.44 510.96-27.71 513.32-27.98 515.54-27.98L515.54-27.98Q519.08-27.98 522.15-27.2 525.21-26.42 527.46-24.68 529.7-22.95 530.98-20.13 532.26-17.31 532.26-13.26L532.26-13.26 508.41-13.26Q508.51-10.72 509.28-9.07 510.05-7.42 511.27-6.46 512.49-5.49 514.05-5.1 515.61-4.71 517.27-4.71L517.27-4.71Q518.76-4.71 520.5-4.88 522.23-5.05 523.96-5.53 525.7-6.01 527.28-6.84 528.87-7.67 530.04-9.01L530.04-9.01 532.53-7.06Q531.92-5.57 530.82-4.39 529.73-3.22 528.31-2.33 526.89-1.44 525.25-0.82 523.6-0.2 521.86 0.2 520.13 0.59 518.4 0.77 516.66 0.95 515.08 0.95L515.08 0.95Q510.61 0.95 507.01 0.02 503.41-0.9 500.86-2.7 498.3-4.49 496.93-7.12 495.55-9.74 495.55-13.11ZM508.61-17.07L520.45-17.07Q520.45-18.87 520.12-20.1 519.79-21.34 519.13-22.09 518.47-22.85 517.48-23.18 516.49-23.51 515.17-23.51L515.17-23.51Q512.39-23.51 510.76-21.83 509.12-20.14 508.61-17.07L508.61-17.07ZM540.49-10.67L540.49-22.05 536.29-22.05 536.29-25.83Q538.02-25.83 539.54-26.33 541.05-26.83 542.33-27.69 543.61-28.54 544.63-29.68 545.64-30.81 546.35-32.07 547.06-33.33 547.44-34.63 547.81-35.94 547.81-37.16L547.81-37.16 552.62-37.16 552.62-27.03 564.61-27.03 564.61-22.05 552.62-22.05 552.62-11.08Q552.62-8.81 553.17-7.47 553.72-6.13 554.59-5.44 555.46-4.76 556.49-4.57 557.53-4.37 558.51-4.37L558.51-4.37Q561-4.37 562.45-5.8 563.9-7.23 563.9-10.18L563.9-10.18Q563.9-10.4 563.9-10.64 563.9-10.89 563.85-11.16L563.85-11.16 568.05-9.91Q568.13-9.25 568.13-8.67L568.13-8.67Q568.13-6.88 567.57-5.47 567-4.05 566.03-2.99 565.05-1.93 563.72-1.17 562.39-0.42 560.88 0.05 559.36 0.51 557.73 0.73 556.09 0.95 554.48 0.95L554.48 0.95Q551.28 0.95 548.69 0.32 546.11-0.32 544.29-1.71 542.47-3.1 541.48-5.31 540.49-7.52 540.49-10.67L540.49-10.67ZM581.72-30.15L581.72-30.15Q580.4-30.15 579.24-30.65 578.08-31.15 577.23-32.01 576.38-32.86 575.88-34.02 575.38-35.18 575.38-36.5L575.38-36.5Q575.38-37.82 575.88-38.98 576.38-40.14 577.23-41 578.08-41.87 579.24-42.37 580.4-42.87 581.72-42.87L581.72-42.87Q583.04-42.87 584.2-42.37 585.36-41.87 586.23-41 587.09-40.14 587.59-38.98 588.09-37.82 588.09-36.5L588.09-36.5Q588.09-35.18 587.59-34.02 587.09-32.86 586.23-32.01 585.36-31.15 584.2-30.65 583.04-30.15 581.72-30.15ZM569.96 0L576.57-5.96 576.57-20.83 570.17-26.29 587.97-27.03 587.97-5.96 594.59 0 569.96 0ZM595.71 0L602.33-5.96 602.33-20.83 595.93-26.29 613.48-27.03 613.48-22Q615.31-24.88 618.18-26.43 621.05-27.98 624.69-27.98L624.69-27.98Q628.74-27.98 631.17-26.23 633.6-24.49 634.67-21L634.67-21Q636.43-24.34 639.48-26.16 642.54-27.98 646.47-27.98L646.47-27.98Q649.3-27.98 651.31-27.11 653.33-26.25 654.61-24.52 655.89-22.8 656.48-20.23 657.06-17.65 657.06-14.26L657.06-14.26 657.06-5.86 657.09-5.96 663.21 0 641.68 0 645.9-5.91 645.9-13.75Q645.9-15.31 645.73-16.7 645.56-18.09 645.07-19.14 644.59-20.19 643.72-20.8 642.85-21.41 641.49-21.41L641.49-21.41Q639.22-21.41 637.63-19.85 636.04-18.29 635.5-15.36L635.5-15.36Q635.5-15.09 635.52-14.81 635.53-14.53 635.53-14.26L635.53-14.26 635.53-5.96 640.02 0 619.64 0 624.13-5.96 624.13-13.75Q624.13-15.31 623.96-16.7 623.79-18.09 623.3-19.14 622.81-20.19 621.94-20.8 621.08-21.41 619.71-21.41L619.71-21.41Q618.34-21.41 617.19-20.81 616.05-20.21 615.22-19.08 614.39-17.94 613.93-16.3 613.48-14.65 613.48-12.52L613.48-12.52 613.48-5.96 617.98 0 595.71 0ZM665.7-13.11L665.7-13.11Q665.7-16.09 666.57-18.36 667.44-20.63 668.91-22.28 670.39-23.93 672.35-25.02 674.32-26.12 676.54-26.78 678.76-27.44 681.12-27.71 683.48-27.98 685.7-27.98L685.7-27.98Q689.24-27.98 692.3-27.2 695.37-26.42 697.61-24.68 699.86-22.95 701.14-20.13 702.42-17.31 702.42-13.26L702.42-13.26 678.57-13.26Q678.67-10.72 679.43-9.07 680.2-7.42 681.42-6.46 682.65-5.49 684.21-5.1 685.77-4.71 687.43-4.71L687.43-4.71Q688.92-4.71 690.65-4.88 692.39-5.05 694.12-5.53 695.85-6.01 697.44-6.84 699.03-7.67 700.2-9.01L700.2-9.01 702.69-7.06Q702.08-5.57 700.98-4.39 699.88-3.22 698.47-2.33 697.05-1.44 695.4-0.82 693.75-0.2 692.02 0.2 690.29 0.59 688.55 0.77 686.82 0.95 685.23 0.95L685.23 0.95Q680.77 0.95 677.16 0.02 673.56-0.9 671.01-2.7 668.46-4.49 667.08-7.12 665.7-9.74 665.7-13.11ZM678.76-17.07L690.6-17.07Q690.6-18.87 690.27-20.1 689.95-21.34 689.29-22.09 688.63-22.85 687.64-23.18 686.65-23.51 685.33-23.51L685.33-23.51Q682.55-23.51 680.91-21.83 679.28-20.14 678.76-17.07L678.76-17.07ZM721.04 0L727.66-5.96 727.66-32.47 721.26-37.94 739.06-38.67 739.06-5.96 745.68 0 721.04 0ZM748.6-13.11L748.6-13.11Q748.6-16.09 749.47-18.36 750.34-20.63 751.82-22.28 753.29-23.93 755.26-25.02 757.22-26.12 759.44-26.78 761.67-27.44 764.02-27.71 766.38-27.98 768.6-27.98L768.6-27.98Q772.14-27.98 775.2-27.2 778.27-26.42 780.51-24.68 782.76-22.95 784.04-20.13 785.32-17.31 785.32-13.26L785.32-13.26 761.47-13.26Q761.57-10.72 762.34-9.07 763.11-7.42 764.33-6.46 765.55-5.49 767.11-5.1 768.67-4.71 770.33-4.71L770.33-4.71Q771.82-4.71 773.56-4.88 775.29-5.05 777.02-5.53 778.76-6.01 780.34-6.84 781.93-7.67 783.1-9.01L783.1-9.01 785.59-7.06Q784.98-5.57 783.88-4.39 782.78-3.22 781.37-2.33 779.95-1.44 778.3-0.82 776.66-0.2 774.92 0.2 773.19 0.59 771.46 0.77 769.72 0.95 768.14 0.95L768.14 0.95Q763.67 0.95 760.07 0.02 756.47-0.9 753.91-2.7 751.36-4.49 749.98-7.12 748.6-9.74 748.6-13.11ZM761.67-17.07L773.51-17.07Q773.51-18.87 773.18-20.1 772.85-21.34 772.19-22.09 771.53-22.85 770.54-23.18 769.55-23.51 768.23-23.51L768.23-23.51Q765.45-23.51 763.81-21.83 762.18-20.14 761.67-17.07L761.67-17.07ZM790.18-6.3L790.18-6.3Q790.18-8.25 790.99-9.68 791.79-11.11 793.16-12.12 794.53-13.13 796.36-13.77 798.19-14.4 800.24-14.76 802.29-15.11 804.45-15.25 806.61-15.38 808.66-15.38L808.66-15.38Q809.81-15.38 811.09-15.34 812.37-15.31 813.67-15.26L813.67-15.26Q813.62-17.02 813.36-18.4 813.1-19.78 812.51-20.72 811.91-21.66 810.85-22.16 809.78-22.66 808.12-22.66L808.12-22.66Q807.05-22.66 806-22.39 804.95-22.12 804.1-21.53 803.24-20.95 802.64-20.03 802.04-19.12 801.87-17.8L801.87-17.8 792.08-19.14Q792.08-20.8 792.76-22.11 793.43-23.41 794.6-24.4 795.77-25.39 797.37-26.07 798.97-26.76 800.81-27.17 802.65-27.59 804.67-27.78 806.68-27.98 808.69-27.98L808.69-27.98Q811.1-27.98 813.31-27.77 815.52-27.56 817.43-27.03 819.33-26.49 820.88-25.59 822.43-24.68 823.53-23.29 824.63-21.9 825.23-19.97 825.82-18.04 825.82-15.48L825.82-15.48 825.82-6.88Q825.82-4.93 826.79-4.15 827.75-3.37 829.41-3.37L829.41-3.37 829.41-0.56Q829.19-0.34 828.67-0.09 828.14 0.17 827.3 0.4 826.46 0.63 825.31 0.79 824.16 0.95 822.67 0.95L822.67 0.95Q820.87 0.95 819.43 0.77 817.99 0.59 816.92 0.13 815.86-0.32 815.15-1.1 814.45-1.88 814.08-3.08L814.08-3.08Q812.86-2 811.32-1.25 809.78-0.49 808.06 0 806.34 0.49 804.52 0.72 802.7 0.95 800.95 0.95L800.95 0.95Q799.77 0.95 798.53 0.83 797.28 0.71 796.09 0.4 794.89 0.1 793.82-0.43 792.74-0.95 791.94-1.76 791.13-2.56 790.66-3.69 790.18-4.81 790.18-6.3ZM802.8-7.37L802.8-7.37Q802.8-6.71 803.14-6.18 803.49-5.64 804.07-5.27 804.66-4.91 805.44-4.71 806.22-4.52 807.1-4.52L807.1-4.52Q808-4.52 809.1-4.72 810.2-4.93 811.19-5.42 812.18-5.91 812.88-6.7 813.59-7.5 813.69-8.64L813.69-8.64 813.69-11.13Q813.35-11.16 813.04-11.16 812.74-11.16 812.47-11.16L812.47-11.16Q809.86-11.16 808.03-10.9 806.19-10.64 805.04-10.16 803.88-9.67 803.34-8.96 802.8-8.25 802.8-7.37ZM832.17 0L838.54-5.96 838.54-20.83 832.14-26.29 850.19-27.03 850.19-21.85Q851.14-23.36 852.37-24.51 853.6-25.66 855.01-26.43 856.41-27.2 857.94-27.59 859.46-27.98 861-27.98L861-27.98Q863.03-27.98 864.51-27.29 865.98-26.61 866.93-25.38 867.89-24.15 868.35-22.46 868.81-20.78 868.81-18.8L868.81-18.8Q868.81-18.16 868.77-17.5 868.72-16.85 868.57-16.21L868.57-16.21 859.66-15.41Q859.76-15.8 859.77-16.15 859.78-16.5 859.78-16.85L859.78-16.85Q859.78-17.85 859.55-18.68 859.32-19.51 858.87-20.1 858.41-20.7 857.72-21.03 857.02-21.36 856.09-21.36L856.09-21.36Q855.12-21.36 854.31-20.97 853.51-20.58 852.85-19.92 852.19-19.26 851.69-18.4 851.19-17.53 850.86-16.59 850.53-15.65 850.36-14.7 850.19-13.75 850.19-12.92L850.19-12.92 850.19-6.2 858.68 0 832.17 0ZM869.98 0L876.6-5.96 876.6-20.83 870.2-26.29 888.25-27.03 888.25-21.73Q890-24.73 892.87-26.35 895.74-27.98 899.45-27.98L899.45-27.98Q902.28-27.98 904.49-27.11 906.7-26.25 908.2-24.52 909.71-22.8 910.49-20.23 911.27-17.65 911.27-14.26L911.27-14.26 911.27-5.96 917.88 0 895.13 0 899.62-5.96 899.62-13.75Q899.62-15.31 899.33-16.7 899.04-18.09 898.41-19.14 897.79-20.19 896.81-20.8 895.84-21.41 894.47-21.41L894.47-21.41Q893.1-21.41 891.96-20.81 890.81-20.21 889.98-19.08 889.15-17.94 888.7-16.3 888.25-14.65 888.25-12.52L888.25-12.52 888.25-5.96 892.74 0 869.98 0ZM920.2-13.11L920.2-13.11Q920.2-16.09 921.07-18.36 921.93-20.63 923.41-22.28 924.89-23.93 926.85-25.02 928.82-26.12 931.04-26.78 933.26-27.44 935.62-27.71 937.97-27.98 940.2-27.98L940.2-27.98Q943.74-27.98 946.8-27.2 949.86-26.42 952.11-24.68 954.36-22.95 955.64-20.13 956.92-17.31 956.92-13.26L956.92-13.26 933.07-13.26Q933.17-10.72 933.93-9.07 934.7-7.42 935.92-6.46 937.14-5.49 938.71-5.1 940.27-4.71 941.93-4.71L941.93-4.71Q943.42-4.71 945.15-4.88 946.89-5.05 948.62-5.53 950.35-6.01 951.94-6.84 953.53-7.67 954.7-9.01L954.7-9.01 957.19-7.06Q956.58-5.57 955.48-4.39 954.38-3.22 952.96-2.33 951.55-1.44 949.9-0.82 948.25-0.2 946.52 0.2 944.79 0.59 943.05 0.77 941.32 0.95 939.73 0.95L939.73 0.95Q935.26 0.95 931.66 0.02 928.06-0.9 925.51-2.7 922.96-4.49 921.58-7.12 920.2-9.74 920.2-13.11ZM933.26-17.07L945.1-17.07Q945.1-18.87 944.77-20.1 944.44-21.34 943.79-22.09 943.13-22.85 942.14-23.18 941.15-23.51 939.83-23.51L939.83-23.51Q937.05-23.51 935.41-21.83 933.78-20.14 933.26-17.07L933.26-17.07ZM960.7 0L967.07-5.96 967.07-20.83 960.68-26.29 978.72-27.03 978.72-21.85Q979.67-23.36 980.9-24.51 982.14-25.66 983.54-26.43 984.94-27.2 986.47-27.59 988-27.98 989.53-27.98L989.53-27.98Q991.56-27.98 993.04-27.29 994.52-26.61 995.47-25.38 996.42-24.15 996.88-22.46 997.35-20.78 997.35-18.8L997.35-18.8Q997.35-18.16 997.3-17.5 997.25-16.85 997.1-16.21L997.1-16.21 988.19-15.41Q988.29-15.8 988.3-16.15 988.31-16.5 988.31-16.85L988.31-16.85Q988.31-17.85 988.08-18.68 987.85-19.51 987.4-20.1 986.95-20.7 986.25-21.03 985.56-21.36 984.63-21.36L984.63-21.36Q983.65-21.36 982.85-20.97 982.04-20.58 981.38-19.92 980.72-19.26 980.22-18.4 979.72-17.53 979.39-16.59 979.06-15.65 978.89-14.7 978.72-13.75 978.72-12.92L978.72-12.92 978.72-6.2 987.22 0 960.7 0ZM1000.47-4.96L1000.47-4.96Q1000.49-6.3 1000.92-7.45 1001.35-8.59 1002.14-9.44 1002.94-10.28 1004.06-10.75 1005.18-11.23 1006.57-11.23L1006.57-11.23Q1007.96-11.23 1009.11-10.74 1010.26-10.25 1011.1-9.35 1011.94-8.45 1012.41-7.19 1012.87-5.93 1012.87-4.39L1012.87-4.39Q1012.87-0.49 1011.09 2.7 1009.31 5.88 1005.82 8.23L1005.82 8.23 1003.28 6.79Q1004.52 5.3 1005.34 3.77 1006.16 2.25 1006.6 0.76L1006.6 0.76Q1006.48 0.78 1006.11 0.78L1006.11 0.78Q1004.94 0.78 1003.9 0.35 1002.86-0.07 1002.11-0.84 1001.35-1.61 1000.91-2.66 1000.47-3.71 1000.47-4.96ZM1033.57-8.42L1033.57-8.42Q1033.57-10.23 1034.56-11.67 1035.55-13.11 1037.21-14.21 1038.87-15.31 1041.03-16.05 1043.19-16.8 1045.56-17.24L1045.56-17.24Q1042.87-19.31 1041.49-21.39 1040.11-23.46 1040.11-25.83L1040.11-25.83Q1040.11-27.54 1040.76-28.96 1041.41-30.37 1042.54-31.49 1043.68-32.62 1045.26-33.45 1046.85-34.28 1048.73-34.84 1050.61-35.4 1052.72-35.67 1054.83-35.94 1057.06-35.94L1057.06-35.94Q1060.82-35.94 1063.81-35.28 1066.8-34.62 1068.87-33.41 1070.95-32.2 1072.05-30.53 1073.15-28.86 1073.15-26.81L1073.15-26.81Q1073.15-24.98 1072.29-23.43 1071.44-21.88 1069.86-20.7 1068.29-19.53 1066.08-18.8 1063.87-18.07 1061.16-17.85L1061.16-17.85Q1063.43-16.7 1065.85-15.59 1068.26-14.48 1070.73-13.4L1070.73-13.4Q1070.85-14.26 1070.91-15.14 1070.97-16.02 1070.97-16.94L1070.97-16.94Q1070.97-17.82 1070.9-18.7L1070.9-18.7 1080.76-15.38Q1080.76-12.23 1079.98-9.74L1079.98-9.74Q1081.81-9.06 1083.46-8.52 1085.11-7.98 1086.52-7.57L1086.52-7.57 1079.88 0.95Q1078.39 0.46 1076.69-0.27 1074.98-1 1073.07-1.9L1073.07-1.9Q1069.92-0.37 1065.64 0.29 1061.35 0.95 1055.96 0.95L1055.96 0.95Q1052.91 0.95 1050.05 0.76 1047.19 0.56 1044.72 0.12 1042.24-0.32 1040.19-1.04 1038.14-1.76 1036.66-2.8 1035.18-3.83 1034.38-5.22 1033.57-6.62 1033.57-8.42ZM1056.35-20.48L1056.35-20.48Q1057.79-20.87 1058.99-21.41 1060.18-21.95 1061.04-22.68 1061.89-23.41 1062.37-24.35 1062.84-25.29 1062.84-26.49L1062.84-26.49Q1062.84-27.51 1062.44-28.31 1062.04-29.1 1061.3-29.66 1060.57-30.22 1059.52-30.52 1058.47-30.81 1057.2-30.81L1057.2-30.81Q1055.76-30.81 1054.65-30.46 1053.54-30.1 1052.77-29.5 1052-28.91 1051.61-28.09 1051.22-27.27 1051.22-26.34L1051.22-26.34Q1051.22-24.83 1052.6-23.39 1053.98-21.95 1056.35-20.48ZM1045.97-9.74L1045.97-9.74Q1045.97-8.67 1046.44-7.84 1046.9-7.01 1047.72-6.4 1048.54-5.79 1049.65-5.37 1050.76-4.96 1052.03-4.7 1053.3-4.44 1054.66-4.33 1056.03-4.22 1057.37-4.22L1057.37-4.22Q1060.03-4.22 1062.05-4.63 1064.06-5.03 1065.55-5.76L1065.55-5.76Q1062.6-7.32 1059.68-8.92 1056.76-10.52 1054-12.01L1054-12.01Q1052.93-12.57 1051.95-13.12 1050.98-13.67 1050.07-14.21L1050.07-14.21Q1049.17-13.84 1048.43-13.35 1047.68-12.87 1047.13-12.3 1046.58-11.74 1046.28-11.1 1045.97-10.45 1045.97-9.74ZM1107.76-10.67L1107.76-22.05 1103.56-22.05 1103.56-25.83Q1105.29-25.83 1106.81-26.33 1108.32-26.83 1109.6-27.69 1110.88-28.54 1111.9-29.68 1112.91-30.81 1113.62-32.07 1114.33-33.33 1114.71-34.63 1115.08-35.94 1115.08-37.16L1115.08-37.16 1119.89-37.16 1119.89-27.03 1131.88-27.03 1131.88-22.05 1119.89-22.05 1119.89-11.08Q1119.89-8.81 1120.44-7.47 1120.99-6.13 1121.86-5.44 1122.73-4.76 1123.76-4.57 1124.8-4.37 1125.78-4.37L1125.78-4.37Q1128.27-4.37 1129.72-5.8 1131.17-7.23 1131.17-10.18L1131.17-10.18Q1131.17-10.4 1131.17-10.64 1131.17-10.89 1131.12-11.16L1131.12-11.16 1135.32-9.91Q1135.4-9.25 1135.4-8.67L1135.4-8.67Q1135.4-6.88 1134.83-5.47 1134.27-4.05 1133.3-2.99 1132.32-1.93 1130.99-1.17 1129.66-0.42 1128.15 0.05 1126.63 0.51 1125 0.73 1123.36 0.95 1121.75 0.95L1121.75 0.95Q1118.55 0.95 1115.96 0.32 1113.37-0.32 1111.56-1.71 1109.74-3.1 1108.75-5.31 1107.76-7.52 1107.76-10.67L1107.76-10.67ZM1138.69-13.11L1138.69-13.11Q1138.69-16.09 1139.56-18.36 1140.42-20.63 1141.9-22.28 1143.38-23.93 1145.34-25.02 1147.31-26.12 1149.53-26.78 1151.75-27.44 1154.11-27.71 1156.46-27.98 1158.68-27.98L1158.68-27.98Q1162.22-27.98 1165.29-27.2 1168.35-26.42 1170.6-24.68 1172.84-22.95 1174.13-20.13 1175.41-17.31 1175.41-13.26L1175.41-13.26 1151.56-13.26Q1151.65-10.72 1152.42-9.07 1153.19-7.42 1154.41-6.46 1155.63-5.49 1157.2-5.1 1158.76-4.71 1160.42-4.71L1160.42-4.71Q1161.91-4.71 1163.64-4.88 1165.37-5.05 1167.11-5.53 1168.84-6.01 1170.43-6.84 1172.01-7.67 1173.19-9.01L1173.19-9.01 1175.68-7.06Q1175.07-5.57 1173.97-4.39 1172.87-3.22 1171.45-2.33 1170.04-1.44 1168.39-0.82 1166.74-0.2 1165.01 0.2 1163.27 0.59 1161.54 0.77 1159.81 0.95 1158.22 0.95L1158.22 0.95Q1153.75 0.95 1150.15 0.02 1146.55-0.9 1144-2.7 1141.45-4.49 1140.07-7.12 1138.69-9.74 1138.69-13.11ZM1151.75-17.07L1163.59-17.07Q1163.59-18.87 1163.26-20.1 1162.93-21.34 1162.27-22.09 1161.61-22.85 1160.63-23.18 1159.64-23.51 1158.32-23.51L1158.32-23.51Q1155.54-23.51 1153.9-21.83 1152.26-20.14 1151.75-17.07L1151.75-17.07ZM1180.41-13.72L1180.41-13.72Q1180.41-17.19 1181.91-19.85 1183.41-22.51 1186.05-24.32 1188.69-26.12 1192.28-27.05 1195.86-27.98 1200.04-27.98L1200.04-27.98Q1204.04-27.98 1206.99-27.19 1209.93-26.39 1211.86-25.22L1211.86-25.22 1216.96-28.17 1216.96-16.36 1210.85-15.63Q1210.39-17.19 1209.59-18.53 1208.78-19.87 1207.64-20.85 1206.51-21.83 1205.07-22.38 1203.63-22.92 1201.92-22.92L1201.92-22.92Q1200.36-22.92 1198.81-22.49 1197.26-22.05 1196.02-20.98 1194.79-19.92 1194.02-18.15 1193.25-16.38 1193.25-13.72L1193.25-13.72Q1193.25-11.47 1194.05-9.79 1194.84-8.11 1196.15-6.97 1197.45-5.83 1199.14-5.27 1200.82-4.71 1202.63-4.71L1202.63-4.71Q1204.17-4.71 1205.89-4.9 1207.61-5.08 1209.28-5.59 1210.95-6.1 1212.47-7.01 1213.98-7.91 1215.1-9.35L1215.1-9.35 1217.59-7.4Q1216.86-5.54 1215.33-4 1213.81-2.47 1211.65-1.37 1209.49-0.27 1206.77 0.34 1204.04 0.95 1200.94 0.95L1200.94 0.95Q1196.06 0.95 1192.25 0 1188.44-0.95 1185.81-2.81 1183.17-4.66 1181.79-7.41 1180.41-10.16 1180.41-13.72ZM1221.16 0L1227.77-5.96 1227.77-32.47 1221.37-37.94 1239.42-38.67 1239.42-22Q1241.25-24.88 1244.12-26.43 1246.99-27.98 1250.62-27.98L1250.62-27.98Q1253.46-27.98 1255.66-27.11 1257.87-26.25 1259.38-24.52 1260.88-22.8 1261.66-20.23 1262.44-17.65 1262.44-14.26L1262.44-14.26 1262.44-5.96 1269.06 0 1246.3 0 1250.79-5.96 1250.79-13.75Q1250.79-15.31 1250.5-16.7 1250.21-18.09 1249.59-19.14 1248.96-20.19 1247.99-20.8 1247.01-21.41 1245.64-21.41L1245.64-21.41Q1244.28-21.41 1243.13-20.81 1241.98-20.21 1241.15-19.08 1240.32-17.94 1239.87-16.3 1239.42-14.65 1239.42-12.52L1239.42-12.52 1239.42-5.96 1243.91 0 1221.16 0ZM1269.91 0L1276.52-5.96 1276.52-20.83 1270.13-26.29 1288.17-27.03 1288.17-21.73Q1289.93-24.73 1292.8-26.35 1295.66-27.98 1299.38-27.98L1299.38-27.98Q1302.21-27.98 1304.42-27.11 1306.63-26.25 1308.13-24.52 1309.63-22.8 1310.41-20.23 1311.19-17.65 1311.19-14.26L1311.19-14.26 1311.19-5.96 1317.81 0 1295.05 0 1299.55-5.96 1299.55-13.75Q1299.55-15.31 1299.25-16.7 1298.96-18.09 1298.34-19.14 1297.72-20.19 1296.74-20.8 1295.76-21.41 1294.39-21.41L1294.39-21.41Q1293.03-21.41 1291.88-20.81 1290.73-20.21 1289.9-19.08 1289.07-17.94 1288.62-16.3 1288.17-14.65 1288.17-12.52L1288.17-12.52 1288.17-5.96 1292.66 0 1269.91 0ZM1320.12-13.5L1320.12-13.5Q1320.12-17.19 1321.63-19.91 1323.13-22.63 1325.81-24.43 1328.5-26.22 1332.19-27.1 1335.87-27.98 1340.24-27.98L1340.24-27.98Q1344.61-27.98 1348.3-27.1 1351.99-26.22 1354.67-24.43 1357.36-22.63 1358.86-19.91 1360.36-17.19 1360.36-13.5L1360.36-13.5Q1360.36-9.67 1358.86-6.93 1357.36-4.2 1354.67-2.44 1351.99-0.68 1348.3 0.13 1344.61 0.95 1340.24 0.95L1340.24 0.95Q1335.87 0.95 1332.19 0.13 1328.5-0.68 1325.81-2.44 1323.13-4.2 1321.63-6.93 1320.12-9.67 1320.12-13.5ZM1332.97-13.5L1332.97-13.5Q1332.97-11.25 1333.54-9.42 1334.11-7.59 1335.1-6.31 1336.09-5.03 1337.42-4.33 1338.75-3.64 1340.24-3.64L1340.24-3.64Q1341.73-3.64 1343.06-4.33 1344.39-5.03 1345.38-6.31 1346.37-7.59 1346.94-9.42 1347.52-11.25 1347.52-13.5L1347.52-13.5Q1347.52-15.77 1346.94-17.63 1346.37-19.48 1345.38-20.8 1344.39-22.12 1343.06-22.85 1341.73-23.58 1340.24-23.58L1340.24-23.58Q1338.75-23.58 1337.42-22.85 1336.09-22.12 1335.1-20.8 1334.11-19.48 1333.54-17.63 1332.97-15.77 1332.97-13.5ZM1363.77 0L1370.39-5.96 1370.39-32.47 1363.99-37.94 1381.79-38.67 1381.79-5.96 1388.41 0 1363.77 0ZM1391.34-13.5L1391.34-13.5Q1391.34-17.19 1392.84-19.91 1394.34-22.63 1397.02-24.43 1399.71-26.22 1403.4-27.1 1407.08-27.98 1411.45-27.98L1411.45-27.98Q1415.82-27.98 1419.51-27.1 1423.2-26.22 1425.88-24.43 1428.57-22.63 1430.07-19.91 1431.57-17.19 1431.57-13.5L1431.57-13.5Q1431.57-9.67 1430.07-6.93 1428.57-4.2 1425.88-2.44 1423.2-0.68 1419.51 0.13 1415.82 0.95 1411.45 0.95L1411.45 0.95Q1407.08 0.95 1403.4 0.13 1399.71-0.68 1397.02-2.44 1394.34-4.2 1392.84-6.93 1391.34-9.67 1391.34-13.5ZM1404.18-13.5L1404.18-13.5Q1404.18-11.25 1404.75-9.42 1405.32-7.59 1406.31-6.31 1407.3-5.03 1408.63-4.33 1409.96-3.64 1411.45-3.64L1411.45-3.64Q1412.94-3.64 1414.27-4.33 1415.6-5.03 1416.59-6.31 1417.58-7.59 1418.15-9.42 1418.73-11.25 1418.73-13.5L1418.73-13.5Q1418.73-15.77 1418.15-17.63 1417.58-19.48 1416.59-20.8 1415.6-22.12 1414.27-22.85 1412.94-23.58 1411.45-23.58L1411.45-23.58Q1409.96-23.58 1408.63-22.85 1407.3-22.12 1406.31-20.8 1405.32-19.48 1404.75-17.63 1404.18-15.77 1404.18-13.5ZM1434.99 5.18L1434.99 5.18Q1434.99 4.1 1435.64 3.22 1436.3 2.34 1437.43 1.64 1438.55 0.93 1440.04 0.39 1441.53-0.15 1443.19-0.51L1443.19-0.51Q1441.77-0.81 1440.63-1.22 1439.48-1.64 1438.66-2.2 1437.84-2.76 1437.39-3.47 1436.94-4.17 1436.94-5.03L1436.94-5.03Q1436.94-6.03 1437.56-6.82 1438.18-7.62 1439.17-8.2 1440.16-8.79 1441.41-9.16 1442.65-9.52 1443.9-9.67L1443.9-9.67Q1442.58-10.28 1441.5-11.11 1440.43-11.94 1439.65-12.95 1438.87-13.96 1438.44-15.17 1438.01-16.38 1438.01-17.8L1438.01-17.8Q1438.01-20.34 1439.38-22.25 1440.75-24.17 1442.99-25.44 1445.24-26.71 1448.1-27.34 1450.95-27.98 1453.96-27.98L1453.96-27.98Q1456.71-27.98 1459.36-27.44 1462.01-26.9 1464.18-25.81L1464.18-25.81Q1464.45-27.22 1465.21-28.25 1465.97-29.27 1467-29.93 1468.04-30.59 1469.28-30.91 1470.51-31.23 1471.73-31.23L1471.73-31.23Q1473.29-31.23 1474.54-30.88 1475.78-30.54 1476.66-29.85 1477.54-29.15 1478.02-28.1 1478.49-27.05 1478.49-25.66L1478.49-25.66Q1478.49-25.15 1478.39-24.57 1478.3-24 1478.08-23.36L1478.08-23.36 1471.85-21.95Q1471.92-22.46 1471.92-22.92L1471.92-22.92Q1471.92-23.75 1471.7-24.33 1471.48-24.9 1471.14-25.27 1470.8-25.63 1470.36-25.79 1469.92-25.95 1469.48-25.95L1469.48-25.95Q1468.51-25.95 1467.9-25.38 1467.29-24.8 1467.02-23.95L1467.02-23.95Q1468.38-22.75 1469.15-21.23 1469.92-19.7 1469.92-17.8L1469.92-17.8Q1469.92-15.26 1468.54-13.35 1467.16-11.45 1464.9-10.17 1462.65-8.89 1459.77-8.25 1456.88-7.62 1453.88-7.62L1453.88-7.62Q1450.05-7.62 1446.63-8.62L1446.63-8.62Q1446.36-8.42 1446.2-8.2 1446.05-7.98 1446.05-7.71L1446.05-7.71Q1446.05-7.1 1446.62-6.65 1447.19-6.2 1448.61-5.9 1450.02-5.59 1452.44-5.44 1454.86-5.3 1458.52-5.3L1458.52-5.3Q1463.55-5.3 1466.96-4.82 1470.36-4.35 1472.44-3.38 1474.51-2.42 1475.4-0.98 1476.29 0.46 1476.29 2.39L1476.29 2.39Q1476.29 4.93 1474.79 6.68 1473.29 8.42 1470.45 9.52 1467.6 10.62 1463.51 11.11 1459.42 11.6 1454.25 11.6L1454.25 11.6Q1449.85 11.6 1446.3 11.21 1442.75 10.82 1440.23 10.02 1437.72 9.23 1436.35 8.02 1434.99 6.81 1434.99 5.18ZM1448.41-17.8L1448.41-17.8Q1448.41-16.36 1448.85-15.31 1449.29-14.26 1450.05-13.57 1450.81-12.89 1451.82-12.57 1452.83-12.26 1453.96-12.26L1453.96-12.26Q1455.08-12.26 1456.09-12.6 1457.1-12.94 1457.86-13.62 1458.62-14.31 1459.06-15.34 1459.5-16.38 1459.5-17.8L1459.5-17.8Q1459.5-19.26 1459.08-20.34 1458.67-21.41 1457.92-22.12 1457.18-22.83 1456.16-23.17 1455.15-23.51 1453.96-23.51L1453.96-23.51Q1452.83-23.51 1451.82-23.17 1450.81-22.83 1450.05-22.12 1449.29-21.41 1448.85-20.34 1448.41-19.26 1448.41-17.8ZM1446.95 3.1L1446.95 3.1Q1446.95 3.93 1447.28 4.66 1447.61 5.4 1448.49 5.93 1449.37 6.47 1450.89 6.77 1452.42 7.08 1454.83 7.08L1454.83 7.08Q1456.64 7.08 1458.51 6.97 1460.38 6.86 1461.89 6.53 1463.4 6.2 1464.36 5.58 1465.31 4.96 1465.31 3.93L1465.31 3.93Q1465.31 2.91 1464.75 2.2 1464.18 1.49 1462.73 1.06 1461.28 0.63 1458.79 0.44 1456.3 0.24 1452.44 0.24L1452.44 0.24Q1451.51 0.24 1450.6 0.22 1449.68 0.2 1448.8 0.15L1448.8 0.15Q1447.95 0.66 1447.45 1.42 1446.95 2.17 1446.95 3.1ZM1479.05-0.66L1488.57-1.64Q1488.28-0.56 1488.28 0.46L1488.28 0.46Q1488.28 1.64 1488.6 2.7 1488.91 3.76 1489.62 4.57 1490.33 5.37 1491.44 5.85 1492.55 6.32 1494.16 6.32L1494.16 6.32Q1495.51 6.32 1496.53 5.8 1497.56 5.27 1498.33 4.41 1499.09 3.54 1499.62 2.39 1500.14 1.25 1500.46 0L1500.46 0 1492.72 0 1483.3-21.73 1477.07-27.03 1498.78-27.03 1495.92-22.97 1501.78-5.2 1506.64-22.8 1503.68-27.03 1521.48-27.03 1515.74-22.31 1507.59 0Q1506.3 3.56 1504.71 5.82 1503.12 8.08 1501.21 9.36 1499.29 10.64 1497.03 11.12 1494.77 11.6 1492.11 11.6L1492.11 11.6Q1488.94 11.6 1486.46 10.9 1483.98 10.21 1482.27 8.92 1480.56 7.64 1479.67 5.82 1478.78 4 1478.78 1.73L1478.78 1.73Q1478.78 1.17 1478.87 0.51 1478.95-0.15 1479.05-0.66L1479.05-0.66ZM1537.37-13.11L1537.37-13.11Q1537.37-16.09 1538.24-18.36 1539.1-20.63 1540.58-22.28 1542.06-23.93 1544.02-25.02 1545.99-26.12 1548.21-26.78 1550.43-27.44 1552.79-27.71 1555.14-27.98 1557.37-27.98L1557.37-27.98Q1560.91-27.98 1563.97-27.2 1567.03-26.42 1569.28-24.68 1571.53-22.95 1572.81-20.13 1574.09-17.31 1574.09-13.26L1574.09-13.26 1550.24-13.26Q1550.33-10.72 1551.1-9.07 1551.87-7.42 1553.09-6.46 1554.31-5.49 1555.88-5.1 1557.44-4.71 1559.1-4.71L1559.1-4.71Q1560.59-4.71 1562.32-4.88 1564.06-5.05 1565.79-5.53 1567.52-6.01 1569.11-6.84 1570.7-7.67 1571.87-9.01L1571.87-9.01 1574.36-7.06Q1573.75-5.57 1572.65-4.39 1571.55-3.22 1570.13-2.33 1568.72-1.44 1567.07-0.82 1565.42-0.2 1563.69 0.2 1561.96 0.59 1560.22 0.77 1558.49 0.95 1556.9 0.95L1556.9 0.95Q1552.43 0.95 1548.83 0.02 1545.23-0.9 1542.68-2.7 1540.13-4.49 1538.75-7.12 1537.37-9.74 1537.37-13.11ZM1550.43-17.07L1562.27-17.07Q1562.27-18.87 1561.94-20.1 1561.61-21.34 1560.95-22.09 1560.3-22.85 1559.31-23.18 1558.32-23.51 1557-23.51L1557-23.51Q1554.22-23.51 1552.58-21.83 1550.94-20.14 1550.43-17.07L1550.43-17.07ZM1576.41 0L1584.56-5.79 1591.27-14.04 1585-20.97 1576.41-27.03 1597.62-27.03 1595.72-24.29 1600.72-18.58 1604.41-23.97 1602.29-27.03 1619.84-27.03 1611.61-21.31 1605.07-13.28 1611.68-5.98 1619.84 0 1599.11 0 1600.99-2.71 1595.72-8.67 1591.59-3 1593.72 0 1576.41 0ZM1627.18 4.69L1627.18-20.34 1620.57-26.29 1638.83-27.03 1638.83-22.51Q1640.56-25.29 1643.38-26.64 1646.2-27.98 1649.77-27.98L1649.77-27.98Q1653.55-27.98 1656.45-26.82 1659.34-25.66 1661.29-23.65 1663.24-21.63 1664.25-18.95 1665.25-16.26 1665.25-13.18L1665.25-13.18Q1665.25-10.45 1664.37-7.9 1663.49-5.35 1661.63-3.38 1659.78-1.42 1656.88-0.23 1653.99 0.95 1649.94 0.95L1649.94 0.95Q1646.23 0.95 1643.4-0.33 1640.56-1.61 1638.83-4.32L1638.83-4.32 1638.83 4.69 1647.89 10.64 1620.57 10.64 1627.18 4.69ZM1638.83-13.5L1638.83-13.5Q1638.83-11.3 1639.43-9.77 1640.03-8.23 1640.99-7.26 1641.96-6.3 1643.16-5.86 1644.37-5.42 1645.62-5.42L1645.62-5.42Q1647.11-5.42 1648.35-5.93 1649.6-6.45 1650.5-7.46 1651.4-8.47 1651.9-9.99 1652.4-11.5 1652.4-13.5L1652.4-13.5Q1652.4-15.5 1651.9-17.05 1651.4-18.6 1650.5-19.67 1649.6-20.73 1648.35-21.26 1647.11-21.8 1645.62-21.8L1645.62-21.8Q1644.3-21.8 1643.08-21.35 1641.86-20.9 1640.92-19.91 1639.98-18.92 1639.4-17.35 1638.83-15.77 1638.83-13.5ZM1668.66 0L1675.28-5.96 1675.28-32.47 1668.88-37.94 1686.68-38.67 1686.68-5.96 1693.3 0 1668.66 0ZM1696.22-13.5L1696.22-13.5Q1696.22-17.19 1697.72-19.91 1699.23-22.63 1701.91-24.43 1704.6-26.22 1708.28-27.1 1711.97-27.98 1716.34-27.98L1716.34-27.98Q1720.71-27.98 1724.4-27.1 1728.08-26.22 1730.77-24.43 1733.45-22.63 1734.96-19.91 1736.46-17.19 1736.46-13.5L1736.46-13.5Q1736.46-9.67 1734.96-6.93 1733.45-4.2 1730.77-2.44 1728.08-0.68 1724.4 0.13 1720.71 0.95 1716.34 0.95L1716.34 0.95Q1711.97 0.95 1708.28 0.13 1704.6-0.68 1701.91-2.44 1699.23-4.2 1697.72-6.93 1696.22-9.67 1696.22-13.5ZM1709.06-13.5L1709.06-13.5Q1709.06-11.25 1709.64-9.42 1710.21-7.59 1711.2-6.31 1712.19-5.03 1713.52-4.33 1714.85-3.64 1716.34-3.64L1716.34-3.64Q1717.83-3.64 1719.16-4.33 1720.49-5.03 1721.48-6.31 1722.47-7.59 1723.04-9.42 1723.62-11.25 1723.62-13.5L1723.62-13.5Q1723.62-15.77 1723.04-17.63 1722.47-19.48 1721.48-20.8 1720.49-22.12 1719.16-22.85 1717.83-23.58 1716.34-23.58L1716.34-23.58Q1714.85-23.58 1713.52-22.85 1712.19-22.12 1711.2-20.8 1710.21-19.48 1709.64-17.63 1709.06-15.77 1709.06-13.5ZM1740.12 0L1746.49-5.96 1746.49-20.83 1740.09-26.29 1758.13-27.03 1758.13-21.85Q1759.09-23.36 1760.32-24.51 1761.55-25.66 1762.96-26.43 1764.36-27.2 1765.89-27.59 1767.41-27.98 1768.95-27.98L1768.95-27.98Q1770.98-27.98 1772.45-27.29 1773.93-26.61 1774.88-25.38 1775.83-24.15 1776.3-22.46 1776.76-20.78 1776.76-18.8L1776.76-18.8Q1776.76-18.16 1776.71-17.5 1776.66-16.85 1776.52-16.21L1776.52-16.21 1767.61-15.41Q1767.7-15.8 1767.72-16.15 1767.73-16.5 1767.73-16.85L1767.73-16.85Q1767.73-17.85 1767.5-18.68 1767.27-19.51 1766.81-20.1 1766.36-20.7 1765.67-21.03 1764.97-21.36 1764.04-21.36L1764.04-21.36Q1763.07-21.36 1762.26-20.97 1761.45-20.58 1760.8-19.92 1760.14-19.26 1759.64-18.4 1759.14-17.53 1758.81-16.59 1758.48-15.65 1758.31-14.7 1758.13-13.75 1758.13-12.92L1758.13-12.92 1758.13-6.2 1766.63 0 1740.12 0ZM1779.4-13.11L1779.4-13.11Q1779.4-16.09 1780.26-18.36 1781.13-20.63 1782.61-22.28 1784.08-23.93 1786.05-25.02 1788.01-26.12 1790.24-26.78 1792.46-27.44 1794.81-27.71 1797.17-27.98 1799.39-27.98L1799.39-27.98Q1802.93-27.98 1806-27.2 1809.06-26.42 1811.31-24.68 1813.55-22.95 1814.83-20.13 1816.12-17.31 1816.12-13.26L1816.12-13.26 1792.26-13.26Q1792.36-10.72 1793.13-9.07 1793.9-7.42 1795.12-6.46 1796.34-5.49 1797.9-5.1 1799.46-4.71 1801.13-4.71L1801.13-4.71Q1802.61-4.71 1804.35-4.88 1806.08-5.05 1807.81-5.53 1809.55-6.01 1811.13-6.84 1812.72-7.67 1813.89-9.01L1813.89-9.01 1816.38-7.06Q1815.77-5.57 1814.67-4.39 1813.58-3.22 1812.16-2.33 1810.74-1.44 1809.1-0.82 1807.45-0.2 1805.71 0.2 1803.98 0.59 1802.25 0.77 1800.51 0.95 1798.93 0.95L1798.93 0.95Q1794.46 0.95 1790.86 0.02 1787.26-0.9 1784.71-2.7 1782.16-4.49 1780.78-7.12 1779.4-9.74 1779.4-13.11ZM1792.46-17.07L1804.3-17.07Q1804.3-18.87 1803.97-20.1 1803.64-21.34 1802.98-22.09 1802.32-22.85 1801.33-23.18 1800.34-23.51 1799.03-23.51L1799.03-23.51Q1796.24-23.51 1794.61-21.83 1792.97-20.14 1792.46-17.07L1792.46-17.07ZM1819.9 0L1826.27-5.96 1826.27-20.83 1819.87-26.29 1837.91-27.03 1837.91-21.85Q1838.87-23.36 1840.1-24.51 1841.33-25.66 1842.74-26.43 1844.14-27.2 1845.67-27.59 1847.19-27.98 1848.73-27.98L1848.73-27.98Q1850.76-27.98 1852.23-27.29 1853.71-26.61 1854.66-25.38 1855.61-24.15 1856.08-22.46 1856.54-20.78 1856.54-18.8L1856.54-18.8Q1856.54-18.16 1856.49-17.5 1856.44-16.85 1856.3-16.21L1856.3-16.21 1847.39-15.41Q1847.48-15.8 1847.5-16.15 1847.51-16.5 1847.51-16.85L1847.51-16.85Q1847.51-17.85 1847.28-18.68 1847.05-19.51 1846.59-20.1 1846.14-20.7 1845.45-21.03 1844.75-21.36 1843.82-21.36L1843.82-21.36Q1842.85-21.36 1842.04-20.97 1841.23-20.58 1840.58-19.92 1839.92-19.26 1839.42-18.4 1838.92-17.53 1838.59-16.59 1838.26-15.65 1838.09-14.7 1837.91-13.75 1837.91-12.92L1837.91-12.92 1837.91-6.2 1846.41 0 1819.9 0Z" opacity="1" transform="matrix(1,0,0,1,0,0)" fill="#000000" class="slogan-text-1" data-fill-palette-color="secondary" id="text-1"></path></svg></g></svg></g></svg></g></svg></g><g transform="matrix(1,0,0,1,408.06111984374473,0)"><svg viewBox="0 0 105.99388771515144 105.99388771515144" height="105.99388771515144" width="105.99388771515144"><g data-palette-color="#c8c8c8"><rect width="28.971662642141396" height="105.99388771515144" fill="#c8c8c8" stroke="transparent" data-fill-palette-color="accent" x="0" fill-opacity="1"></rect><rect width="28.971662642141396" height="105.99388771515144" fill="#c8c8c8" stroke="transparent" data-fill-palette-color="accent" x="35.33129590505048" fill-opacity="0.75"></rect><rect width="28.971662642141396" height="105.99388771515144" fill="#c8c8c8" stroke="transparent" data-fill-palette-color="accent" x="70.66259181010096" fill-opacity="0.5"></rect></g></svg></g></svg></g><defs></defs></svg><rect width="395.52" height="81.55295027311554" fill="none" stroke="none" visibility="hidden"></rect></g></svg></g></svg>